<svg width="120" height="48" viewBox="0 0 120 48" fill="none" xmlns="http://www.w3.org/2000/svg">
<rect x="0.5" y="0.5" width="119" height="47" rx="23.5" stroke="#89BCD9"/>
<path d="M42.06 27.884C41.88 28.04 41.628 28.196 41.304 28.352C40.98 28.496 40.62 28.628 40.224 28.748C39.84 28.868 39.438 28.964 39.018 29.036C38.61 29.108 38.226 29.144 37.866 29.144C36.822 29.144 35.88 28.982 35.04 28.658C34.212 28.334 33.498 27.884 32.898 27.308C32.31 26.732 31.854 26.054 31.53 25.274C31.218 24.494 31.062 23.648 31.062 22.736C31.062 21.656 31.236 20.69 31.584 19.838C31.944 18.974 32.43 18.248 33.042 17.66C33.666 17.06 34.38 16.61 35.184 16.31C35.988 15.998 36.84 15.842 37.74 15.842C38.496 15.842 39.198 15.932 39.846 16.112C40.494 16.292 41.064 16.52 41.556 16.796L40.962 18.398C40.722 18.254 40.422 18.122 40.062 18.002C39.714 17.882 39.354 17.786 38.982 17.714C38.61 17.63 38.262 17.588 37.938 17.588C37.17 17.588 36.474 17.708 35.85 17.948C35.226 18.176 34.692 18.512 34.248 18.956C33.804 19.388 33.462 19.916 33.222 20.54C32.982 21.152 32.862 21.842 32.862 22.61C32.862 23.318 32.982 23.966 33.222 24.554C33.462 25.142 33.804 25.652 34.248 26.084C34.692 26.504 35.22 26.834 35.832 27.074C36.456 27.302 37.14 27.416 37.884 27.416C38.328 27.416 38.766 27.374 39.198 27.29C39.63 27.194 40.002 27.062 40.314 26.894V24.302H37.722V22.628H42.06V27.884ZM44.9756 21.548H46.6496V29H44.9756V21.548ZM44.8496 18.848C44.8496 18.584 44.9516 18.362 45.1556 18.182C45.3716 18.002 45.6056 17.912 45.8576 17.912C46.1096 17.912 46.3316 18.002 46.5236 18.182C46.7276 18.362 46.8296 18.584 46.8296 18.848C46.8296 19.124 46.7276 19.352 46.5236 19.532C46.3316 19.7 46.1096 19.784 45.8576 19.784C45.6056 19.784 45.3716 19.694 45.1556 19.514C44.9516 19.334 44.8496 19.112 44.8496 18.848ZM50.2659 18.272H51.9399V21.584H53.9919V22.898H51.9399V29H50.2659V22.898H48.8979V21.584H50.2659V18.272ZM66.7246 15.986V29H64.9966V23.294H58.1746V29H56.4286V15.986H58.1746V21.638H64.9966V15.986H66.7246ZM72.4176 29.288C71.7456 29.288 71.1876 29.084 70.7436 28.676C70.3116 28.256 70.0836 27.716 70.0596 27.056V21.548H71.7336V26.462C71.7576 26.87 71.8716 27.2 72.0756 27.452C72.2916 27.704 72.6276 27.836 73.0836 27.848C73.5036 27.848 73.8756 27.728 74.1996 27.488C74.5356 27.236 74.8056 26.9 75.0096 26.48C75.2136 26.048 75.3156 25.562 75.3156 25.022V21.548H76.9896V29H75.4596L75.3156 27.164L75.4056 27.488C75.2616 27.836 75.0396 28.148 74.7396 28.424C74.4516 28.688 74.1096 28.898 73.7136 29.054C73.3176 29.21 72.8856 29.288 72.4176 29.288ZM84.4217 29.18C83.7377 29.18 83.1317 29.03 82.6037 28.73C82.0877 28.43 81.6737 28.052 81.3617 27.596L81.5597 27.074V29H79.8857V15.068H81.5417V23.258L81.4877 22.628C81.7877 22.22 82.2137 21.89 82.7657 21.638C83.3297 21.374 83.9537 21.242 84.6377 21.242C85.3097 21.242 85.9217 21.404 86.4737 21.728C87.0257 22.052 87.4637 22.508 87.7877 23.096C88.1237 23.672 88.2917 24.362 88.2917 25.166C88.2917 26.006 88.1117 26.726 87.7517 27.326C87.4037 27.926 86.9357 28.388 86.3477 28.712C85.7597 29.024 85.1177 29.18 84.4217 29.18ZM84.0797 27.758C84.5597 27.758 84.9917 27.644 85.3757 27.416C85.7597 27.188 86.0597 26.882 86.2757 26.498C86.4917 26.102 86.5997 25.652 86.5997 25.148C86.5997 24.668 86.4857 24.236 86.2577 23.852C86.0417 23.456 85.7417 23.144 85.3577 22.916C84.9857 22.688 84.5597 22.574 84.0797 22.574C83.6717 22.574 83.2937 22.652 82.9457 22.808C82.5977 22.964 82.3037 23.18 82.0637 23.456C81.8237 23.72 81.6557 24.032 81.5597 24.392V25.886C81.6557 26.246 81.8177 26.57 82.0457 26.858C82.2737 27.134 82.5617 27.356 82.9097 27.524C83.2577 27.68 83.6477 27.758 84.0797 27.758Z" fill="#89BCD9"/>
</svg>
