<svg width="132" height="48" viewBox="0 0 132 48" fill="none" xmlns="http://www.w3.org/2000/svg">
<rect width="132" height="48" rx="24" fill="#89BCD9"/>
<path d="M31.872 15.986H33.618V27.326H40.224V29H31.872V15.986ZM42.6553 21.548H44.3293V29H42.6553V21.548ZM42.5293 18.848C42.5293 18.584 42.6313 18.362 42.8353 18.182C43.0513 18.002 43.2853 17.912 43.5373 17.912C43.7893 17.912 44.0113 18.002 44.2033 18.182C44.4073 18.362 44.5093 18.584 44.5093 18.848C44.5093 19.124 44.4073 19.352 44.2033 19.532C44.0113 19.7 43.7893 19.784 43.5373 19.784C43.2853 19.784 43.0513 19.694 42.8353 19.514C42.6313 19.334 42.5293 19.112 42.5293 18.848ZM50.2496 29.216L46.1096 21.548H48.0896L50.8976 27.47L49.8716 27.434L52.4456 21.548H54.3176L50.3396 29.216H50.2496ZM59.4003 29.18C58.5483 29.18 57.8163 29.012 57.2043 28.676C56.5923 28.328 56.1183 27.86 55.7823 27.272C55.4583 26.672 55.2963 25.988 55.2963 25.22C55.2963 24.488 55.4823 23.822 55.8543 23.222C56.2263 22.622 56.7243 22.142 57.3483 21.782C57.9723 21.422 58.6683 21.242 59.4363 21.242C60.4203 21.242 61.2363 21.53 61.8843 22.106C62.5323 22.682 62.9703 23.474 63.1983 24.482L57.0603 26.642L56.6643 25.652L61.7043 23.816L61.3443 24.05C61.2003 23.654 60.9603 23.312 60.6243 23.024C60.2883 22.724 59.8503 22.574 59.3103 22.574C58.8543 22.574 58.4463 22.688 58.0863 22.916C57.7263 23.132 57.4443 23.432 57.2403 23.816C57.0363 24.2 56.9343 24.638 56.9343 25.13C56.9343 25.646 57.0423 26.102 57.2583 26.498C57.4743 26.882 57.7683 27.188 58.1403 27.416C58.5243 27.632 58.9563 27.74 59.4363 27.74C59.7603 27.74 60.0723 27.68 60.3723 27.56C60.6843 27.44 60.9723 27.284 61.2363 27.092L62.0103 28.334C61.6383 28.586 61.2183 28.79 60.7503 28.946C60.2943 29.102 59.8443 29.18 59.4003 29.18ZM70.4512 15.986H79.0912V17.66H75.5992V29H73.8532V17.66H70.4512V15.986ZM82.9726 29.18C82.1206 29.18 81.3886 29.012 80.7766 28.676C80.1646 28.328 79.6906 27.86 79.3546 27.272C79.0306 26.672 78.8686 25.988 78.8686 25.22C78.8686 24.488 79.0546 23.822 79.4266 23.222C79.7986 22.622 80.2966 22.142 80.9206 21.782C81.5446 21.422 82.2406 21.242 83.0086 21.242C83.9926 21.242 84.8086 21.53 85.4566 22.106C86.1046 22.682 86.5426 23.474 86.7706 24.482L80.6326 26.642L80.2366 25.652L85.2766 23.816L84.9166 24.05C84.7726 23.654 84.5326 23.312 84.1966 23.024C83.8606 22.724 83.4226 22.574 82.8826 22.574C82.4266 22.574 82.0186 22.688 81.6586 22.916C81.2986 23.132 81.0166 23.432 80.8126 23.816C80.6086 24.2 80.5066 24.638 80.5066 25.13C80.5066 25.646 80.6146 26.102 80.8306 26.498C81.0466 26.882 81.3406 27.188 81.7126 27.416C82.0966 27.632 82.5286 27.74 83.0086 27.74C83.3326 27.74 83.6446 27.68 83.9446 27.56C84.2566 27.44 84.5446 27.284 84.8086 27.092L85.5826 28.334C85.2106 28.586 84.7906 28.79 84.3226 28.946C83.8666 29.102 83.4166 29.18 82.9726 29.18ZM90.9562 29.144C90.4282 29.144 89.9122 29.054 89.4082 28.874C88.9162 28.682 88.5082 28.4 88.1842 28.028L88.8862 27.056C89.1982 27.356 89.5162 27.584 89.8402 27.74C90.1762 27.884 90.5062 27.956 90.8302 27.956C91.0702 27.956 91.2922 27.926 91.4962 27.866C91.7002 27.806 91.8622 27.71 91.9822 27.578C92.1142 27.434 92.1802 27.242 92.1802 27.002C92.1802 26.738 92.0902 26.528 91.9102 26.372C91.7422 26.216 91.5202 26.09 91.2442 25.994C90.9802 25.898 90.6982 25.808 90.3982 25.724C89.7862 25.52 89.3182 25.238 88.9942 24.878C88.6702 24.518 88.5082 24.08 88.5082 23.564C88.5082 23.168 88.6042 22.802 88.7962 22.466C89.0002 22.118 89.2942 21.836 89.6782 21.62C90.0742 21.404 90.5602 21.296 91.1362 21.296C91.6522 21.296 92.1142 21.362 92.5222 21.494C92.9302 21.614 93.3142 21.818 93.6742 22.106L93.0082 23.15C92.7922 22.922 92.5342 22.754 92.2342 22.646C91.9342 22.538 91.6642 22.478 91.4242 22.466C91.2202 22.454 91.0222 22.484 90.8302 22.556C90.6502 22.628 90.5002 22.73 90.3802 22.862C90.2602 22.994 90.2002 23.15 90.2002 23.33C90.2002 23.582 90.2842 23.786 90.4522 23.942C90.6202 24.098 90.8362 24.224 91.1002 24.32C91.3762 24.404 91.6462 24.494 91.9102 24.59C92.2822 24.698 92.6122 24.842 92.9002 25.022C93.1882 25.202 93.4162 25.424 93.5842 25.688C93.7642 25.952 93.8542 26.282 93.8542 26.678C93.8542 27.122 93.7462 27.536 93.5302 27.92C93.3262 28.292 93.0082 28.592 92.5762 28.82C92.1562 29.036 91.6162 29.144 90.9562 29.144ZM96.9182 18.272H98.5922V21.584H100.644V22.898H98.5922V29H96.9182V22.898H95.5502V21.584H96.9182V18.272Z" fill="#262E34"/>
</svg>
