<svg width="50" height="47" viewBox="0 0 50 47" fill="none" xmlns="http://www.w3.org/2000/svg">
<path d="M14.9415 41.0703C13.0368 39.5588 11.0049 38.1097 9.61647 36.0691C6.69496 32.4706 4.44553 28.3043 2.90773 23.926C1.97824 21.079 1.6599 18.0267 0.461657 15.2898C-0.791825 13.3019 0.676458 11.1288 2.83474 10.4969C3.79565 10.3109 5.48524 9.39647 3.44574 10.05C1.61726 11.4035 1.4403 8.8215 3.31526 8.658C4.59483 8.48641 5.06587 7.4296 4.6283 6.47824C3.25475 5.57457 7.95896 4.58142 5.59199 3.23302C3.12625 0.549119 9.04104 0.0324619 7.58177 3.08055C7.23247 5.4244 11.7148 2.65097 10.6748 5.35761C11.7318 6.65743 14.6331 5.65345 14.5612 7.47698C16.101 7.58377 16.6295 8.8909 18.075 8.99125C19.5731 9.67381 22.289 10.2117 22.7988 11.9149C21.3124 13.102 17.8707 9.46268 17.7053 12.7489C18.1543 17.6033 18.0399 22.6041 19.8004 27.227C20.6331 30.0262 22.6518 32.2297 24.4748 34.4098C26.2191 36.545 28.5818 38.0481 30.99 39.3137C33.1025 40.3189 35.3801 40.9855 37.6823 41.4038C38.6161 40.6832 40.2647 38.0042 41.7215 39.1339C41.7906 40.4032 38.8301 41.7873 41.5822 41.647C43.1982 41.1552 44.319 42.9079 45.6497 41.3269C46.8757 42.7921 50.7455 40.3909 49.8732 43.3856C48.6936 44.1534 46.9733 43.6894 45.7917 44.7456C43.8437 43.764 42.2929 45.6239 40.1363 45.3887C37.7413 45.8215 35.3048 45.9962 32.8767 46C28.8932 45.6825 24.8254 45.5486 21.0358 44.1494C18.9011 43.5236 16.8178 42.2972 14.9415 41.0703ZM18.3057 42.5409C20.3903 43.4504 22.4286 44.4089 24.7131 44.6981C28.3375 45.2066 32.0804 45.9889 35.7178 45.2753C34.0716 44.5254 32.3696 45.5675 30.7296 44.7391C28.7626 45.1661 26.6517 44.6303 24.652 44.3665C22.378 43.3446 19.9239 42.6419 17.7944 41.3154C15.1335 40.3348 19.1706 42.5729 19.8892 42.7541C21.5526 43.7067 18.06 42.2658 17.5676 41.8698C16.1744 41.0814 15.9969 41.2461 17.4296 42.0469C17.7182 42.2173 18.0034 42.3958 18.3057 42.5409ZM14.3392 39.7129C16.3592 40.4677 14.3303 38.2797 13.4047 38.4069C12.9946 37.6891 11.8378 37.2356 12.6538 36.85C11.186 37.3641 11.1163 34.8951 10.4263 35.2479C8.87357 34.7532 9.822 33.0009 7.97238 31.9248C7.80355 30.7909 6.13471 29.8074 5.60242 28.097C5.36733 27.2213 3.71699 24.7067 4.7308 27.047C5.594 29.2999 7.11275 31.2292 8.37663 33.1564C9.35804 34.9913 10.5169 36.9089 12.3042 38.0536C12.9067 38.6366 13.4884 39.5301 14.3392 39.7129ZM8.52007 33.2671C8.59058 32.9594 8.88951 33.9332 8.52007 33.2671V33.2671ZM16.7583 40.6177C16.1151 40.3632 17.2056 40.4157 16.7583 40.6177V40.6177ZM17.8549 41.0213C17.3543 41.3329 17.7413 40.4641 17.8549 41.0213V41.0213ZM19.2274 41.5989C18.2204 41.2031 19.8809 40.9712 19.2274 41.5989V41.5989ZM21.5799 42.9217C20.309 42.6982 21.977 42.3296 21.5799 42.9217V42.9217ZM17.0625 39.7447C15.7516 39.7355 18.0775 39.0823 17.0625 39.7447V39.7447ZM18.0922 40.2627C17.7252 40.4195 18.0634 39.9125 18.0922 40.2627V40.2627ZM23.2384 43.5032C24.0656 44.0299 28.0693 44.6577 25.5623 43.7192C25.1428 43.8084 20.9136 42.5124 23.2384 43.5032ZM15.0686 37.0839C13.7845 36.6961 14.9882 36.7327 15.0686 37.0839V37.0839ZM17.4644 38.4925C16.1703 38.1541 18.0879 38.0538 17.4644 38.4925V38.4925ZM19.4795 39.7391C18.0281 39.3972 20.3742 39.3988 19.4795 39.7391V39.7391ZM14.0938 36.0127C15.0646 36.7638 18.0088 36.109 15.5805 35.5644C14.4752 34.97 11.9843 34.5631 13.6822 35.9228L14.0938 36.0127L14.0938 36.0127ZM20.8444 40.1695C19.1487 39.7726 21.2487 39.4745 20.8444 40.1695V40.1695ZM18.7931 38.5247C21.1668 39.2022 16.797 37.0103 18.2074 38.2755L18.52 38.4182L18.7931 38.5248L18.7931 38.5247ZM22.9058 40.9229C20.8753 40.6102 25.1538 40.9445 22.9058 40.9229V40.9229ZM13.2288 34.7005C12.6741 34.7359 13.141 34.2781 13.2288 34.7005V34.7005ZM26.7085 43.075C25.9749 43.6427 26.7685 42.312 26.7085 43.075V43.075ZM17.0652 37.0708C16.3628 37.0543 16.9292 36.669 17.0652 37.0708V37.0708ZM13.442 34.4355C11.6751 33.8617 14.7326 34.3573 13.442 34.4355V34.4355ZM9.14986 31.6364C7.74548 30.5144 8.98923 31.0122 9.14986 31.6364V31.6364ZM20.4178 38.8509C20.1814 38.5789 20.3066 38.9104 20.4178 38.8509V38.8509ZM27.4313 43.1931C27.0494 43.3504 27.4088 42.7775 27.4313 43.1931V43.1931ZM19.7971 38.2042C18.6966 38.0421 19.9233 37.6687 19.7971 38.2042V38.2042ZM14.5721 34.8635C13.034 34.2086 15.5323 34.7597 14.5721 34.8635V34.8635ZM23.4107 40.4043C21.9523 40.1124 24.9069 39.8063 23.4107 40.4043V40.4043ZM18.8132 37.2558C20.5376 37.4801 16.7614 36.0724 18.4349 37.1298L18.8132 37.2558L18.8132 37.2558ZM24.8064 40.9735C26.4163 40.0025 25.8856 43.2474 27.5378 41.2477C29.1675 40.0471 26.1303 42.7319 28.1389 41.4617C29.5915 40.4816 31.7371 41.9264 33.0925 42.3978C34.0673 42.3495 35.0148 43.2481 36.0141 42.7014C37.9377 42.1787 32.2526 41.9261 33.7428 40.9987C31.9828 41.5156 30.6823 40.3826 29.8162 39.2452C27.8419 38.7852 25.5592 37.7669 24.5739 36.0042C24.1721 35.3424 25.1542 36.0974 24.2271 35.0156C23.0374 33.948 22.4433 32.7362 21.6447 31.4385C20.6907 30.925 20.5795 29.4136 20.4831 31.3879C20.4906 30.1419 19.3312 29.3033 19.0482 29.6519C19.0431 28.4519 20.289 29.0534 19.4168 28.1656C19.2291 26.9219 18.611 25.6259 18.4252 24.2217C18.1365 23.5449 18.3845 22.0952 17.44 23.6274C17.0959 25.2468 17.3258 21.6374 17.8609 22.8277C18.5633 21.6131 17.6087 21.756 17.5696 21.9246C18.0272 20.8998 17.8592 19.4463 17.4503 20.0008C17.6941 18.9147 17.8354 16.0036 17.0853 16.5195C17.54 15.3837 17.9476 11.3225 15.9738 12.8709C15.1739 12.8822 13.7886 13.1639 13.1338 13.4924C15.1869 14.6342 12.9272 13.9048 12.0915 13.7233C11.9826 14.7798 11.1548 14.3229 10.1206 14.3332C11.7724 14.5394 9.3162 16.0376 8.3686 15.4557C7.13792 16.0491 9.4307 17.5303 8.39329 17.9883C8.52078 18.6788 6.50789 17.739 6.66597 19.3335C5.47122 18.8265 6.50146 21.2251 7.09919 20.4138C9.13124 20.9687 8.52971 22.2337 8.58145 23.4353C8.25036 24.1355 6.94682 21.7895 8.29113 21.8981C7.23057 20.16 7.11797 21.2699 6.23667 22.0773C6.03165 22.136 8.48465 23.2262 6.94526 23.7653C8.2996 23.9762 8.33813 25.1719 8.61384 25.9285C9.42788 26.7839 9.26127 24.984 10.2353 26.012C9.61892 25.0961 6.97051 23.4316 9.10283 23.9654C9.09144 23.0437 8.71719 22.3005 9.37047 22.3185C10.0174 21.1365 8.69292 25.2328 10.1512 23.7306C10.5548 23.5528 10.6548 22.5471 11.3804 23.8256C12.4342 24.8715 11.761 25.6294 10.2745 24.6717C10.5404 25.582 12.2631 25.9073 11.9394 27.3308C12.2826 28.5827 12.7628 28.1216 13.1813 28.0492C13.5096 29.2657 13.6961 28.3712 13.7116 27.7923C15.2149 28.117 14.8628 29.0135 15.3332 29.6399C16.3691 30.1116 13.8505 26.4423 15.6289 28.5366C17.5 30.2409 16.3306 30.9523 14.6515 30.6793C15.7142 30.5927 16.057 32.1288 17.3863 32.0749C18.5985 32.6567 19.4193 34.8913 17.3298 33.9611C16.605 33.3018 14.0404 32.4886 16.1351 33.7425C18.0698 34.6464 19.6064 35.1871 21.4723 36.3217C22.8076 37.2835 23.3846 38.385 23.8907 38.6031C22.7684 39.1439 20.5085 38.1712 22.1866 37.8731C21.1399 37.6808 19.9626 37.1468 20.9652 38.4625C21.8177 39.1806 23.9855 39.1045 24.3741 39.1859C24.0447 39.9181 23.4794 39.9764 24.3876 40.0332C23.3743 40.5779 24.7125 40.6623 24.8064 40.9735H24.8064ZM22.7344 35.0704C22.118 34.42 21.9586 33.2018 22.625 34.2618C22.9667 34.4003 23.7197 36.2527 22.7344 35.0704H22.7344ZM29.482 39.3947C29.4932 39.6894 29.8665 39.3696 29.482 39.3947V39.3947ZM21.7611 33.4756C21.7374 32.4923 21.984 34.2341 21.7611 33.4756V33.4756ZM21.0904 32.5653C20.315 31.0538 22.0679 32.9934 21.0904 32.5653V32.5653ZM12.9635 26.9063C13.1876 27.6923 13.419 26.7837 12.9635 26.9063V26.9063ZM19.4315 30.4433C19.7113 29.3834 19.7603 31.3327 19.4315 30.4433V30.4433ZM14.8621 27.2378C14.5399 26.6529 15.5358 27.7863 14.8621 27.2378V27.2378ZM18.7836 28.5061C18.049 26.8456 19.3037 27.5991 18.9461 28.7782L18.7836 28.5061ZM12.0209 23.9559C11.6924 23.4112 11.1492 21.8128 11.3241 21.3249C11.4823 22.1195 12.9991 24.7447 12.0681 22.4123C11.0393 20.4572 13.2979 23.047 13.5303 23.5346C13.6384 24.0197 12.8955 23.4021 13.3989 24.5396C12.4809 23.2445 12.8569 25.2549 12.0209 23.9559ZM9.9308 22.5029C10.0168 21.2363 10.4093 23.3715 9.9308 22.5029V22.5029ZM10.8709 22.8294C11.3196 21.8734 11.6316 24.1622 10.8709 22.8294V22.8294ZM8.60943 21.0644C7.83129 20.2843 7.26818 19.5652 8.64583 20.5803C9.17667 20.6012 7.46645 18.945 8.77367 20.0543C10.1483 20.3072 9.45245 22.3282 8.60943 21.0644ZM9.79737 21.0331C10.0373 21.4778 10.2493 20.5813 9.79737 21.0331V21.0331ZM10.5283 21.2695C9.84325 19.974 11.3598 21.8127 10.5283 21.2695V21.2695ZM9.07523 19.8685C6.81312 17.8375 11.9177 20.9305 9.44479 20.2451L9.07521 19.8685L9.07523 19.8685ZM15.5565 23.6677C14.5776 23.0756 15.2971 19.499 15.6309 21.9451C16.5826 21.6346 15.5784 23.2084 16.2882 23.1939C16.1763 24.1869 15.8588 24.5439 15.5565 23.6677ZM17.9538 25.0972C18.0498 24.0193 18.1558 25.8341 17.9538 25.0972V25.0972ZM17.5374 24.6821C17.5485 25.2243 17.6452 24.2216 17.5374 24.6821V24.6821ZM9.51898 19.2011C8.06572 17.1783 13.7425 21.2473 10.4498 19.7142C10.1057 19.6234 9.6917 19.591 9.51898 19.2011ZM14.1353 21.6704C13.9978 19.9672 14.4424 21.9528 14.1353 21.6704L14.1353 21.6704ZM17.6402 23.9388C17.6604 24.5806 17.9114 22.9686 17.6402 23.9388V23.9388ZM9.7416 18.4291C10.6053 18.2427 13.321 19.9595 10.8271 18.9195C10.55 18.61 9.95933 18.7506 9.7416 18.4291ZM17.1587 22.1586C17.251 20.417 17.6743 21.1183 17.1618 22.4079L17.1587 22.1586L17.1587 22.1586H17.1587ZM10.3845 17.8231C10.7365 17.3023 9.45034 15.4684 10.5699 17.1653C11.0537 17.5531 11.9706 17.8149 11.1611 17.9781C12.4343 19.1112 10.8505 18.2851 10.3845 17.8231ZM16.7918 21.6146C17.0062 22.777 17.0349 19.6306 16.7918 21.6146V21.6146ZM9.64954 15.9906C9.79151 16.3519 9.91835 15.8747 9.64954 15.9906V15.9906ZM11.3208 16.9942C11.7509 16.0836 12.1143 18.0097 11.3208 16.9942V16.9942ZM16.0351 19.64C16.0306 19.2903 16.1241 20.1486 16.0351 19.64V19.64ZM15.762 19.03C15.1077 17.4014 16.3707 19.8923 15.762 19.03V19.03ZM15.3603 17.9622C15.2504 17.2893 15.7336 18.8077 15.3603 17.9622L15.3603 17.9622ZM16.0141 16.8899C15.5651 16.0916 16.5811 13.3721 16.6945 15.0587C16.2206 16.3729 16.5578 17.1081 16.8884 15.3454C17.4989 13.9581 16.7565 18.083 16.0141 16.8899L16.0141 16.8899ZM16.686 12.8454C16.7295 13.1376 16.8818 12.603 16.686 12.8454V12.8454ZM15.5639 35.1529C15.2978 34.9185 15.5974 35.302 15.5639 35.1529V35.1529ZM17.8756 36.3326C19.1614 36.6655 19.1548 36.1308 17.9927 35.9719C17.3676 35.3853 15.3952 34.763 17.1606 35.8991C17.2775 36.1979 17.647 36.1909 17.8756 36.3326ZM13.3102 33.2734C14.0186 33.8063 15.9784 34.7838 14.3193 33.4762C14.8787 32.8206 13.2487 32.4715 13.7894 32.033C12.4141 31.1839 12.7045 31.2594 13.668 31.2861C12.0151 30.5408 13.9066 30.5965 13.8175 30.2146C13.1802 30.0876 10.6518 29.0808 12.1392 30.2973C10.6272 29.5195 11.7789 30.587 11.3219 30.4742C9.77571 30.0488 12.6989 31.6622 11.0763 31.2617C11.9634 31.9709 13.464 33.0783 11.4514 32.0122C11.1862 32.3973 12.8916 32.9811 13.3102 33.2734ZM15.7279 34.6746C14.2866 33.5071 18.6675 35.6303 15.7279 34.6746V34.6746ZM28.104 42.2388C27.7023 42.7407 28.142 41.6504 28.104 42.2388V42.2388ZM29.3761 42.7789C30.0543 42.1159 29.4038 43.835 30.4999 42.6166C30.5118 41.7443 30.4662 41.2291 29.2403 42.2887C28.9024 42.4778 28.7515 43.2817 29.3761 42.7789ZM9.18387 29.9851C7.72384 29.1633 8.97557 29.1591 9.18387 29.9851V29.9851ZM10.5422 30.8831C8.74248 30.1192 10.0378 30.0394 10.5422 30.8831V30.8831ZM18.2696 35.5848C19.024 36.2608 21.7347 36.0808 19.1859 35.668C18.8084 35.1049 16.7889 35.2404 18.2696 35.5848ZM28.8923 42.2034C27.7672 42.642 30.0534 41.2204 28.8923 42.2034V42.2034ZM31.3072 43.8777C30.8067 44.0158 31.3145 43.5623 31.3072 43.8777V43.8777ZM31.3109 43.4361C32.5968 42.0616 30.065 43.5174 31.3109 43.4361H31.3109ZM5.84304 27.1634C4.74711 25.5858 5.16178 24.8767 4.10493 23.5886C3.90485 22.6036 2.29186 20.3683 3.27065 22.7364C4.16717 24.1213 4.43357 26.2657 5.84304 27.1634ZM30.9076 42.9991C29.9366 42.3272 33.2733 41.4565 30.9076 42.9991V42.9991ZM32.7135 43.7128C31.9641 43.4982 33.8981 42.6867 32.7135 43.7128V43.7128ZM8.78125 28.2414C7.90563 28.1763 9.12029 27.7325 8.78125 28.2414V28.2414ZM32.3364 43.2255C33.4834 42.4794 32.0721 42.594 32.1285 43.2942L32.3364 43.2255H32.3364ZM16.7698 33.3267C16.1641 33.3695 16.7304 32.8229 16.7698 33.3267V33.3267ZM17.7318 33.8852C17.2618 33.9831 17.4261 33.2616 17.7318 33.8852V33.8852ZM34.1769 43.7298C35.6464 42.6603 33.2861 43.525 33.8685 43.9324L34.1769 43.7298ZM33.6142 43.4554C32.3504 43.9039 34.8113 42.4434 33.6142 43.4554V43.4554ZM36.4892 45.387C35.5127 45.2113 37.2929 44.8439 36.4892 45.387V45.387ZM9.51837 27.8744C10.5957 28.1179 13.8238 30.5512 11.9194 28.0427C10.944 27.7514 11.529 25.346 10.5341 25.7717C11.2018 26.8972 11.0835 27.3762 9.68148 26.6667C7.91939 25.7989 8.69124 27.0968 9.03561 27.4544C8.56632 27.562 9.65636 27.8654 9.51837 27.8744ZM4.60992 23.9636C4.8028 23.1587 2.83396 19.5359 3.68021 22.1482C3.98568 22.6955 3.95462 23.7326 4.60992 23.9636ZM13.619 29.5672C13.0643 29.0991 13.5927 29.501 13.619 29.5672V29.5672ZM14.9852 29.888C13.4751 29.5417 14.9845 29.0354 14.9852 29.888V29.888ZM26.8239 37.4175C26.5981 36.835 25.9313 37.404 26.8239 37.4175L26.8239 37.4175ZM27.3924 37.8364C27.0644 37.8994 27.3084 37.5104 27.3924 37.8364V37.8364ZM32.0848 40.8184C31.5217 40.7754 32.5362 40.482 32.0848 40.8184V40.8184ZM7.06173 24.595C5.67865 24.2355 8.3526 24.0908 7.06173 24.595V24.595ZM25.7817 36.4935C24.9587 36.7027 25.7673 35.6504 25.7817 36.4935V36.4935ZM6.5517 23.396C5.78463 23.2099 7.3809 23.1134 6.5517 23.396V23.396ZM8.95848 24.5722C8.70389 24.6771 8.94344 24.2951 8.95848 24.5722V24.5722ZM38.314 42.7333C39.3802 42.5152 41.81 43.2809 42.2028 42.4481C40.9079 42.4164 37.7229 41.5264 37.5722 42.6605L37.8557 42.7055L38.314 42.7333ZM9.72341 24.7667C9.06305 24.7348 9.74195 23.9123 9.72341 24.7667V24.7667ZM3.39539 20.3381C2.30238 20.0917 3.10801 18.7103 3.39539 20.3381V20.3381ZM4.9044 20.7207C3.5232 20.2504 4.92293 20.198 4.9044 20.7207V20.7207ZM5.76675 21.148C5.51747 20.9443 5.57163 21.4054 5.76675 21.148V21.148ZM11.1928 24.6598C10.588 24.4844 11.4482 24.423 11.1928 24.6598V24.6598ZM5.19238 20.1843C3.44462 20.0001 5.04653 18.9549 5.19238 20.1843V20.1843ZM2.09868 18.1591C1.7972 18.3732 2.05468 17.5917 2.09868 18.1591V18.1591ZM2.55886 17.8085C2.16376 17.8941 2.48378 17.1357 2.55886 17.8085V17.8085ZM5.10145 19.3397C6.1766 18.9136 3.14307 18.4584 4.88177 19.2592L5.10145 19.3397ZM39.1301 40.5454C38.2555 40.3486 39.8182 39.9088 39.1301 40.5454V40.5454ZM43.241 42.6952C42.5466 42.8036 43.5167 41.8723 43.241 42.6952V42.6952ZM5.3613 17.9952C4.50893 18.1533 5.47456 17.1991 5.3613 17.9952V17.9952ZM1.74381 15.55C1.54947 14.4261 1.57606 12.4533 3.43484 13.12C0.953671 13.617 5.15209 16.2312 4.6219 14.1672C5.66518 14.2187 6.66279 13.5451 6.11529 14.5673C8.17085 14.3383 9.59593 12.54 11.5815 12.792C13.1281 12.5855 14.8191 12.4289 16.4858 11.8008C17.8562 11.7012 19.1753 10.2127 18.4242 9.33045C16.5554 9.17092 14.5993 9.40681 12.5338 9.82101C10.245 10.301 8.16593 11.2131 5.85657 11.6046C3.60559 11.9096 6.30934 12.4451 5.66457 12.5644C4.48997 12.9756 7.06536 13.2528 5.51229 13.6863C4.55314 13.5023 3.55479 13.1698 3.9645 12.1501C1.80826 12.4324 -0.0864561 13.3352 1.6171 15.549L1.7438 15.5499L1.74381 15.5499V15.55ZM6.93955 12.8803C7.44512 11.0013 9.64809 14.4265 7.7682 13.1299C7.54366 12.9603 7.17437 12.822 6.93955 12.8803ZM7.03791 11.9693C7.4258 12.2768 7.76758 11.4209 7.03791 11.9693V11.9693ZM7.96442 11.9842C8.03029 11.1195 10.0854 12.4419 8.30328 12.2954L7.96442 11.9842ZM9.23181 11.4701C9.36484 11.9554 9.69464 10.9245 9.23181 11.4701V11.4701ZM9.55603 11.251C10.3267 10.3168 13.9204 10.6548 11.2899 11.1599C10.5849 10.6244 10.0444 11.4757 9.55603 11.251ZM14.2458 10.5217C14.1286 7.96982 16.5758 11.4285 14.2458 10.5217V10.5217ZM15.5766 10.5143C16.0631 9.22816 17.4645 9.99822 15.8017 10.2559C15.8378 10.3927 15.7529 10.9198 15.5766 10.5143ZM4.83656 17.335C3.29336 16.5559 6.2902 16.437 4.83656 17.335V17.335ZM5.91137 17.6364C4.80396 17.4146 6.42103 17.0896 5.91137 17.6364V17.6364ZM2.74447 15.3688C1.76156 15.1241 3.57508 14.7251 2.74447 15.3688V15.3688ZM45.6675 42.46C45.0326 42.7966 45.6915 41.7132 45.6675 42.46V42.46ZM41.306 39.4572C40.7455 39.5321 41.43 38.5973 41.306 39.4572V39.4572ZM46.8668 42.7496C48.0281 42.7535 50.3855 42.3857 47.8587 42.3869C47.4622 42.4493 45.5483 42.4359 46.8668 42.7496L46.8668 42.7496ZM6.8568 17.1093C7.79667 17.0442 8.32727 16.0634 6.67503 16.1198C4.11435 15.8523 8.93428 17.0043 6.34654 16.6749C5.99883 16.9072 6.83661 17.1736 6.8568 17.1093ZM7.68455 17.532C7.39391 17.8554 7.58642 16.9232 7.68455 17.532V17.532ZM8.66643 14.8905C8.10205 14.7541 9.07428 14.3802 8.66643 14.8905V14.8905ZM5.54073 9.61934C7.21809 9.04364 9.51187 8.39674 10.3039 9.90281C9.49784 8.92407 9.97858 7.96056 10.7399 9.39155C11.8164 10.8394 12.3553 8.73303 11.6551 8.24739C12.453 9.24758 13.3605 9.72021 12.1893 8.31061C13.462 6.7661 9.641 8.51286 8.77251 8.49527C8.35465 8.68449 4.45841 9.49774 5.54073 9.61934ZM6.52376 7.71994C7.48038 6.9915 9.83225 8.15323 8.32307 6.996C8.17551 6.86451 5.01794 7.87355 6.52376 7.71994ZM10.0113 7.8652C11.1309 7.89402 9.52837 6.34778 10.8625 7.04843C10.6434 6.32627 9.3092 6.19107 8.65692 5.90255C8.288 6.56281 9.40786 7.87407 10.0113 7.8652ZM7.13529 4.67126C6.45648 4.93982 7.52261 4.14153 7.13529 4.67126V4.67126ZM8.56069 5.01546C10.3649 4.77403 8.10079 4.23158 8.19713 4.99606L8.56069 5.01546V5.01546V5.01546ZM5.89917 2.91438C4.62879 1.24129 8.28827 3.19562 6.99758 1.44384C5.91124 0.571099 4.86733 2.42596 5.89917 2.91438ZM22.2024 11.7738C22.785 10.7317 19.7968 10.3691 21.8098 11.4044C21.9951 11.4669 21.9532 11.8458 22.2024 11.7738Z" fill="#89BCD9"/>
</svg>
