<svg width="41" height="47" viewBox="0 0 41 47" fill="none" xmlns="http://www.w3.org/2000/svg">
<path d="M36.45 1H4.05C1.8135 1 0 2.8135 0 5.05V41.95C0 44.1865 1.8135 46 4.05 46H36.45C38.6865 46 40.5 44.1865 40.5 41.95V5.05C40.5 2.8135 38.6865 1 36.45 1ZM10.125 39.25V30.25L15.1875 34.75L10.125 39.25ZM25.875 39.25V25.8119C25.8531 24.7617 25.3474 23.5 23.0625 23.5C18.4871 23.5 13.3549 25.8012 13.3037 25.8242L10.125 27.2643V7.75H14.625V20.5249C16.8716 19.7937 20.0121 19 23.0625 19C25.8441 19 27.5091 20.0935 28.4158 21.0109C30.3514 22.9684 30.3778 25.462 30.3751 25.75V39.25H25.875ZM27 15.0625H22.5C24.2685 12.7422 25.3789 10.3004 25.875 7.75H30.375C30.0713 10.306 29.0351 12.7563 27 15.0625Z" fill="#89BCD9"/>
</svg>
