<svg width="154" height="48" viewBox="0 0 154 48" fill="none" xmlns="http://www.w3.org/2000/svg">
<rect width="154" height="48" rx="24" fill="#89BCD9"/>
<path d="M41.43 28.028C41.214 28.172 40.92 28.334 40.548 28.514C40.176 28.694 39.738 28.844 39.234 28.964C38.742 29.084 38.202 29.144 37.614 29.144C36.606 29.132 35.694 28.952 34.878 28.604C34.074 28.256 33.39 27.782 32.826 27.182C32.262 26.582 31.824 25.892 31.512 25.112C31.212 24.32 31.062 23.48 31.062 22.592C31.062 21.62 31.218 20.726 31.53 19.91C31.854 19.082 32.304 18.368 32.88 17.768C33.456 17.156 34.134 16.682 34.914 16.346C35.706 16.01 36.57 15.842 37.506 15.842C38.286 15.842 38.994 15.95 39.63 16.166C40.266 16.37 40.812 16.616 41.268 16.904L40.566 18.524C40.206 18.284 39.768 18.056 39.252 17.84C38.748 17.624 38.184 17.516 37.56 17.516C36.924 17.516 36.324 17.642 35.76 17.894C35.196 18.146 34.698 18.5 34.266 18.956C33.834 19.412 33.492 19.946 33.24 20.558C33 21.158 32.88 21.806 32.88 22.502C32.88 23.21 32.988 23.87 33.204 24.482C33.432 25.082 33.75 25.604 34.158 26.048C34.578 26.492 35.082 26.84 35.67 27.092C36.258 27.344 36.918 27.47 37.65 27.47C38.31 27.47 38.898 27.368 39.414 27.164C39.93 26.96 40.356 26.732 40.692 26.48L41.43 28.028ZM43.308 25.202C43.308 24.458 43.482 23.786 43.83 23.186C44.19 22.586 44.682 22.112 45.306 21.764C45.93 21.416 46.638 21.242 47.43 21.242C48.246 21.242 48.96 21.416 49.572 21.764C50.184 22.112 50.658 22.586 50.994 23.186C51.33 23.786 51.498 24.458 51.498 25.202C51.498 25.946 51.33 26.624 50.994 27.236C50.658 27.836 50.178 28.31 49.554 28.658C48.942 29.006 48.228 29.18 47.412 29.18C46.62 29.18 45.912 29.018 45.288 28.694C44.676 28.358 44.19 27.896 43.83 27.308C43.482 26.708 43.308 26.006 43.308 25.202ZM44.982 25.22C44.982 25.7 45.09 26.138 45.306 26.534C45.522 26.918 45.81 27.224 46.17 27.452C46.542 27.68 46.95 27.794 47.394 27.794C47.862 27.794 48.276 27.68 48.636 27.452C49.008 27.224 49.296 26.918 49.5 26.534C49.704 26.138 49.806 25.7 49.806 25.22C49.806 24.74 49.704 24.308 49.5 23.924C49.296 23.528 49.008 23.216 48.636 22.988C48.276 22.748 47.862 22.628 47.394 22.628C46.938 22.628 46.524 22.748 46.152 22.988C45.792 23.228 45.504 23.546 45.288 23.942C45.084 24.326 44.982 24.752 44.982 25.22ZM55.2586 21.548L55.4026 23.366L55.3306 23.078C55.5706 22.526 55.9606 22.088 56.5006 21.764C57.0406 21.428 57.6646 21.26 58.3726 21.26C59.0806 21.26 59.6566 21.47 60.1006 21.89C60.5566 22.298 60.7906 22.832 60.8026 23.492V29H59.1106V24.086C59.0986 23.678 58.9786 23.348 58.7506 23.096C58.5346 22.832 58.1926 22.7 57.7246 22.7C57.2926 22.7 56.9026 22.82 56.5546 23.06C56.2066 23.3 55.9306 23.63 55.7266 24.05C55.5346 24.47 55.4386 24.956 55.4386 25.508V29H53.7646V21.548H55.2586ZM64.4339 18.272H66.1079V21.584H68.1599V22.898H66.1079V29H64.4339V22.898H63.0659V21.584H64.4339V18.272ZM73.2786 29.18C72.5826 29.18 71.9466 29.03 71.3706 28.73C70.8066 28.43 70.3566 27.992 70.0206 27.416C69.6966 26.828 69.5346 26.114 69.5346 25.274C69.5346 24.446 69.7086 23.732 70.0566 23.132C70.4046 22.52 70.8666 22.052 71.4426 21.728C72.0306 21.404 72.6726 21.242 73.3686 21.242C74.0646 21.242 74.6526 21.404 75.1326 21.728C75.6126 22.04 75.9786 22.412 76.2306 22.844L76.1226 23.132L76.2846 21.548H77.8326V29H76.1586V27.056L76.3386 27.488C76.2906 27.608 76.1826 27.764 76.0146 27.956C75.8586 28.136 75.6426 28.322 75.3666 28.514C75.1026 28.706 74.7966 28.868 74.4486 29C74.1006 29.12 73.7106 29.18 73.2786 29.18ZM73.7286 27.794C74.1486 27.794 74.5266 27.716 74.8626 27.56C75.1986 27.404 75.4746 27.188 75.6906 26.912C75.9186 26.624 76.0746 26.282 76.1586 25.886V24.428C76.0626 24.068 75.8946 23.756 75.6546 23.492C75.4146 23.216 75.1266 23.006 74.7906 22.862C74.4546 22.706 74.0826 22.628 73.6746 22.628C73.2306 22.628 72.8226 22.736 72.4506 22.952C72.0786 23.168 71.7786 23.468 71.5506 23.852C71.3346 24.236 71.2266 24.686 71.2266 25.202C71.2266 25.682 71.3406 26.12 71.5686 26.516C71.7966 26.912 72.1026 27.224 72.4866 27.452C72.8706 27.68 73.2846 27.794 73.7286 27.794ZM86.7775 28.316C86.4415 28.58 86.0395 28.79 85.5715 28.946C85.1035 29.102 84.6355 29.18 84.1675 29.18C83.3515 29.18 82.6375 29.018 82.0255 28.694C81.4135 28.37 80.9335 27.92 80.5855 27.344C80.2495 26.756 80.0815 26.066 80.0815 25.274C80.0815 24.482 80.2615 23.792 80.6215 23.204C80.9935 22.616 81.4735 22.166 82.0615 21.854C82.6615 21.53 83.3035 21.368 83.9875 21.368C84.5875 21.368 85.1215 21.452 85.5895 21.62C86.0695 21.788 86.4775 22.016 86.8135 22.304L85.9855 23.384C85.7695 23.216 85.5055 23.066 85.1935 22.934C84.8815 22.802 84.5275 22.736 84.1315 22.736C83.6995 22.736 83.2975 22.85 82.9255 23.078C82.5655 23.294 82.2775 23.594 82.0615 23.978C81.8575 24.362 81.7555 24.794 81.7555 25.274C81.7555 25.73 81.8635 26.156 82.0795 26.552C82.2955 26.936 82.5955 27.242 82.9795 27.47C83.3635 27.686 83.8015 27.794 84.2935 27.794C84.6175 27.794 84.9115 27.746 85.1755 27.65C85.4515 27.554 85.6975 27.422 85.9135 27.254L86.7775 28.316ZM89.6585 18.272H91.3325V21.584H93.3845V22.898H91.3325V29H89.6585V22.898H88.2905V21.584H89.6585V18.272ZM102.597 21.548L102.741 23.222L102.669 23.078C102.945 22.514 103.335 22.07 103.839 21.746C104.355 21.422 104.943 21.26 105.603 21.26C106.023 21.26 106.395 21.326 106.719 21.458C107.043 21.59 107.307 21.782 107.511 22.034C107.727 22.274 107.865 22.574 107.925 22.934L107.835 22.988C108.123 22.448 108.519 22.028 109.023 21.728C109.539 21.416 110.079 21.26 110.643 21.26C111.375 21.26 111.951 21.47 112.371 21.89C112.803 22.298 113.025 22.832 113.037 23.492V29H111.363V24.086C111.351 23.702 111.255 23.384 111.075 23.132C110.907 22.868 110.607 22.724 110.175 22.7C109.743 22.7 109.353 22.832 109.005 23.096C108.669 23.36 108.405 23.702 108.213 24.122C108.021 24.53 107.919 24.974 107.907 25.454V29H106.233V24.086C106.221 23.702 106.119 23.384 105.927 23.132C105.747 22.868 105.441 22.724 105.009 22.7C104.565 22.7 104.175 22.832 103.839 23.096C103.503 23.36 103.239 23.702 103.047 24.122C102.867 24.542 102.777 24.992 102.777 25.472V29H101.103V21.548H102.597ZM119.412 29.18C118.56 29.18 117.828 29.012 117.216 28.676C116.604 28.328 116.13 27.86 115.794 27.272C115.47 26.672 115.308 25.988 115.308 25.22C115.308 24.488 115.494 23.822 115.866 23.222C116.238 22.622 116.736 22.142 117.36 21.782C117.984 21.422 118.68 21.242 119.448 21.242C120.432 21.242 121.248 21.53 121.896 22.106C122.544 22.682 122.982 23.474 123.21 24.482L117.072 26.642L116.676 25.652L121.716 23.816L121.356 24.05C121.212 23.654 120.972 23.312 120.636 23.024C120.3 22.724 119.862 22.574 119.322 22.574C118.866 22.574 118.458 22.688 118.098 22.916C117.738 23.132 117.456 23.432 117.252 23.816C117.048 24.2 116.946 24.638 116.946 25.13C116.946 25.646 117.054 26.102 117.27 26.498C117.486 26.882 117.78 27.188 118.152 27.416C118.536 27.632 118.968 27.74 119.448 27.74C119.772 27.74 120.084 27.68 120.384 27.56C120.696 27.44 120.984 27.284 121.248 27.092L122.022 28.334C121.65 28.586 121.23 28.79 120.762 28.946C120.306 29.102 119.856 29.18 119.412 29.18Z" fill="#262E34"/>
</svg>
