<svg width="66" height="65" viewBox="0 0 66 65" fill="none" xmlns="http://www.w3.org/2000/svg">
  <g transform="translate(0, 5)">
    <path d="M63.5601 33.1067C66.086 47.3278 51.4926 57.6193 34.1419 54.2397C16.7912 50.8601 -2.21622 36.5143 0.206159 20.7664C2.425 6.34164 16.7746 -1.77745 27.5943 0.330051C44.945 3.7097 60.3979 15.3038 63.5601 33.1067Z" fill="#89BCD9" fill-opacity="0.12"/>
  </g>
  
  <g transform="translate(22, 45)">
    <path d="M16.9378 1C23.7553 4.65217 18.1052 8 10.5747 8C3.04423 8 -2.6059 4.34783 3.75715 1" stroke="#F8F5EC" stroke-width="2" stroke-linecap="round"/>
  </g>

  <g transform="translate(16, 8)">
    <path d="M0 17.0423C0 25.2266 9.33767 35.1965 16.7174 41C23.1935 35.6429 32.6064 27.0866 33.2842 17.0423C33.796 9.45643 27.3352 -0.219418 16.7174 0.00379216C3.99109 0.271327 0 10.2715 0 17.0423Z" fill="#F8F5EC"/>
    <path d="M20.5319 15.1473C20.4642 17.3487 18.7087 19.0823 16.6109 19.0194C14.5131 18.9565 12.8673 17.1208 12.9351 14.9194C13.0028 12.718 14.7584 10.9843 16.8562 11.0473C18.954 11.1102 20.5997 12.9458 20.5319 15.1473Z" fill="#89BCD9"/>
  </g>
</svg>