<svg width="508" height="100" viewBox="0 0 508 100" fill="none" xmlns="http://www.w3.org/2000/svg">
<g clip-path="url(#clip0_1795_4498)">
<path d="M84.5366 59.1732C87.0626 73.3942 72.4691 83.6857 55.1184 80.3061C37.7678 76.9265 18.7603 62.5807 21.1827 46.8328C23.4016 32.408 37.7512 24.289 48.5709 26.3965C65.9215 29.7761 81.3745 41.3702 84.5366 59.1732Z" fill="#89BCD9" fill-opacity="0.12"/>
<path d="M35 39.0423C35 47.2266 44.3377 57.1965 51.7174 63C58.1935 57.6429 67.6064 49.0866 68.2842 39.0423C68.796 31.4564 62.3352 21.7806 51.7174 22.0038C38.9911 22.2713 35 32.2715 35 39.0423Z" fill="#F8F5EC"/>
<path d="M55.5319 37.1473C55.4642 39.3487 53.7087 41.0823 51.6109 41.0194C49.5131 40.9565 47.8673 39.1208 47.9351 36.9194C48.0028 34.718 49.7584 32.9843 51.8562 33.0473C53.954 33.1102 55.5997 34.9458 55.5319 37.1473Z" fill="#89BCD9"/>
<path d="M57.9378 65C64.7553 68.6522 59.1052 72 51.5747 72C44.0442 72 38.3941 68.3478 44.7571 65" stroke="#F8F5EC" stroke-width="2" stroke-linecap="round"/>
<path d="M101.607 39.22H104.817V61H101.607V39.22ZM125.034 61.3C123.854 61.3 122.784 61.06 121.824 60.58C120.864 60.08 120.104 59.34 119.544 58.36C118.984 57.38 118.704 56.17 118.704 54.73C118.704 53.31 118.994 52.09 119.574 51.07C120.174 50.05 120.954 49.27 121.914 48.73C122.894 48.17 123.954 47.89 125.094 47.89C126.294 47.89 127.274 48.15 128.034 48.67C128.814 49.17 129.424 49.76 129.864 50.44L129.654 50.92L129.954 48.43H132.804V61H129.714V57.85L130.044 58.6C129.964 58.76 129.794 58.99 129.534 59.29C129.274 59.57 128.924 59.87 128.484 60.19C128.064 60.51 127.564 60.78 126.984 61C126.424 61.2 125.774 61.3 125.034 61.3ZM125.874 58.78C126.534 58.78 127.124 58.66 127.644 58.42C128.164 58.18 128.604 57.84 128.964 57.4C129.324 56.96 129.574 56.44 129.714 55.84V53.23C129.554 52.67 129.284 52.19 128.904 51.79C128.524 51.37 128.064 51.04 127.524 50.8C127.004 50.56 126.424 50.44 125.784 50.44C125.064 50.44 124.404 50.62 123.804 50.98C123.204 51.32 122.724 51.8 122.364 52.42C122.004 53.04 121.824 53.76 121.824 54.58C121.824 55.36 122.004 56.07 122.364 56.71C122.744 57.35 123.244 57.86 123.864 58.24C124.484 58.6 125.154 58.78 125.874 58.78ZM140.298 48.43L140.568 51.13L140.448 50.92C140.928 49.98 141.588 49.25 142.428 48.73C143.268 48.19 144.238 47.92 145.338 47.92C146.018 47.92 146.628 48.03 147.168 48.25C147.728 48.47 148.188 48.78 148.548 49.18C148.908 49.58 149.138 50.08 149.238 50.68L149.088 50.77C149.588 49.89 150.248 49.2 151.068 48.7C151.908 48.18 152.798 47.92 153.738 47.92C154.958 47.92 155.928 48.27 156.648 48.97C157.388 49.67 157.768 50.57 157.788 51.67V61H154.728V52.84C154.708 52.22 154.558 51.7 154.278 51.28C154.018 50.86 153.548 50.63 152.868 50.59C152.148 50.59 151.508 50.81 150.948 51.25C150.408 51.69 149.988 52.26 149.688 52.96C149.388 53.66 149.228 54.41 149.208 55.21V61H146.118V52.84C146.098 52.22 145.948 51.7 145.668 51.28C145.388 50.86 144.898 50.63 144.198 50.59C143.478 50.59 142.848 50.81 142.308 51.25C141.768 51.69 141.348 52.27 141.048 52.99C140.768 53.69 140.628 54.43 140.628 55.21V61H137.538V48.43H140.298ZM457.103 59.29C457.103 58.81 457.273 58.41 457.613 58.09C457.973 57.75 458.373 57.58 458.813 57.58C459.213 57.58 459.583 57.75 459.923 58.09C460.283 58.41 460.463 58.81 460.463 59.29C460.463 59.81 460.283 60.23 459.923 60.55C459.583 60.85 459.213 61 458.813 61C458.373 61 457.973 60.85 457.613 60.55C457.273 60.23 457.103 59.81 457.103 59.29ZM462.171 59.29C462.171 58.81 462.341 58.41 462.681 58.09C463.041 57.75 463.441 57.58 463.881 57.58C464.281 57.58 464.651 57.75 464.991 58.09C465.351 58.41 465.531 58.81 465.531 59.29C465.531 59.81 465.351 60.23 464.991 60.55C464.651 60.85 464.281 61 463.881 61C463.441 61 463.041 60.85 462.681 60.55C462.341 60.23 462.171 59.81 462.171 59.29ZM467.24 59.29C467.24 58.81 467.41 58.41 467.75 58.09C468.11 57.75 468.51 57.58 468.95 57.58C469.35 57.58 469.72 57.75 470.06 58.09C470.42 58.41 470.6 58.81 470.6 59.29C470.6 59.81 470.42 60.23 470.06 60.55C469.72 60.85 469.35 61 468.95 61C468.51 61 468.11 60.85 467.75 60.55C467.41 60.23 467.24 59.81 467.24 59.29ZM474.138 39.7H476.928V68.05H474.138V39.7Z" fill="#89BCD9"/>
<path d="M172.079 37.69H175.169V61H172.079V37.69ZM178.792 54.58C178.792 53.32 179.092 52.19 179.692 51.19C180.292 50.17 181.122 49.37 182.182 48.79C183.242 48.21 184.452 47.92 185.812 47.92C187.192 47.92 188.402 48.21 189.442 48.79C190.482 49.37 191.282 50.17 191.842 51.19C192.422 52.19 192.712 53.32 192.712 54.58C192.712 55.84 192.422 56.98 191.842 58C191.282 59.02 190.482 59.83 189.442 60.43C188.402 61.01 187.182 61.3 185.782 61.3C184.442 61.3 183.242 61.03 182.182 60.49C181.142 59.95 180.312 59.18 179.692 58.18C179.092 57.16 178.792 55.96 178.792 54.58ZM181.912 54.61C181.912 55.39 182.082 56.1 182.422 56.74C182.762 57.36 183.222 57.86 183.802 58.24C184.382 58.6 185.032 58.78 185.752 58.78C186.492 58.78 187.152 58.6 187.732 58.24C188.312 57.86 188.762 57.36 189.082 56.74C189.422 56.1 189.592 55.39 189.592 54.61C189.592 53.83 189.422 53.13 189.082 52.51C188.762 51.89 188.312 51.39 187.732 51.01C187.152 50.63 186.492 50.44 185.752 50.44C185.012 50.44 184.352 50.63 183.772 51.01C183.192 51.39 182.732 51.9 182.392 52.54C182.072 53.16 181.912 53.85 181.912 54.61ZM206.656 59.83C206.096 60.29 205.416 60.65 204.616 60.91C203.836 61.17 203.046 61.3 202.246 61.3C200.866 61.3 199.646 61.03 198.586 60.49C197.546 59.95 196.736 59.19 196.156 58.21C195.576 57.23 195.286 56.06 195.286 54.7C195.286 53.36 195.596 52.2 196.216 51.22C196.836 50.22 197.656 49.46 198.676 48.94C199.696 48.4 200.776 48.13 201.916 48.13C202.956 48.13 203.876 48.27 204.676 48.55C205.476 48.83 206.166 49.22 206.746 49.72L205.216 51.73C204.876 51.45 204.446 51.2 203.926 50.98C203.426 50.76 202.846 50.65 202.186 50.65C201.486 50.65 200.846 50.83 200.266 51.19C199.686 51.53 199.226 52.01 198.886 52.63C198.546 53.23 198.376 53.92 198.376 54.7C198.376 55.44 198.546 56.13 198.886 56.77C199.246 57.39 199.736 57.88 200.356 58.24C200.976 58.6 201.686 58.78 202.486 58.78C203.006 58.78 203.486 58.71 203.926 58.57C204.366 58.41 204.756 58.19 205.096 57.91L206.656 59.83ZM215.444 61.3C214.264 61.3 213.194 61.06 212.234 60.58C211.274 60.08 210.514 59.34 209.954 58.36C209.394 57.38 209.114 56.17 209.114 54.73C209.114 53.31 209.404 52.09 209.984 51.07C210.584 50.05 211.364 49.27 212.324 48.73C213.304 48.17 214.364 47.89 215.504 47.89C216.704 47.89 217.684 48.15 218.444 48.67C219.224 49.17 219.834 49.76 220.274 50.44L220.064 50.92L220.364 48.43H223.214V61H220.124V57.85L220.454 58.6C220.374 58.76 220.204 58.99 219.944 59.29C219.684 59.57 219.334 59.87 218.894 60.19C218.474 60.51 217.974 60.78 217.394 61C216.834 61.2 216.184 61.3 215.444 61.3ZM216.284 58.78C216.944 58.78 217.534 58.66 218.054 58.42C218.574 58.18 219.014 57.84 219.374 57.4C219.734 56.96 219.984 56.44 220.124 55.84V53.23C219.964 52.67 219.694 52.19 219.314 51.79C218.934 51.37 218.474 51.04 217.934 50.8C217.414 50.56 216.834 50.44 216.194 50.44C215.474 50.44 214.814 50.62 214.214 50.98C213.614 51.32 213.134 51.8 212.774 52.42C212.414 53.04 212.234 53.76 212.234 54.58C212.234 55.36 212.414 56.07 212.774 56.71C213.154 57.35 213.654 57.86 214.274 58.24C214.894 58.6 215.564 58.78 216.284 58.78ZM229.148 42.91H232.238V48.46H235.598V50.89H232.238V61H229.148V50.89H226.928V48.46H229.148V42.91ZM244.844 61.3C243.384 61.3 242.134 61.02 241.094 60.46C240.054 59.88 239.254 59.09 238.694 58.09C238.134 57.07 237.854 55.91 237.854 54.61C237.854 53.37 238.164 52.25 238.784 51.25C239.424 50.23 240.274 49.42 241.334 48.82C242.414 48.22 243.604 47.92 244.904 47.92C246.584 47.92 247.974 48.41 249.074 49.39C250.194 50.37 250.944 51.74 251.324 53.5L241.094 57.04L240.374 55.24L248.564 52.3L247.934 52.69C247.694 52.07 247.314 51.53 246.794 51.07C246.274 50.59 245.564 50.35 244.664 50.35C243.944 50.35 243.294 50.53 242.714 50.89C242.154 51.23 241.704 51.71 241.364 52.33C241.044 52.93 240.884 53.64 240.884 54.46C240.884 55.3 241.054 56.04 241.394 56.68C241.754 57.3 242.234 57.79 242.834 58.15C243.454 58.51 244.144 58.69 244.904 58.69C245.444 58.69 245.954 58.59 246.434 58.39C246.934 58.19 247.404 57.94 247.844 57.64L249.254 59.92C248.594 60.34 247.874 60.68 247.094 60.94C246.334 61.18 245.584 61.3 244.844 61.3ZM259.885 61.3C258.705 61.3 257.645 61.03 256.705 60.49C255.765 59.93 255.025 59.14 254.485 58.12C253.945 57.1 253.675 55.91 253.675 54.55C253.675 53.15 253.965 51.96 254.545 50.98C255.125 49.98 255.905 49.22 256.885 48.7C257.885 48.16 259.005 47.89 260.245 47.89C261.205 47.89 262.115 48.09 262.975 48.49C263.855 48.87 264.535 49.41 265.015 50.11L264.925 51.16V37.69H267.985V61H264.895V58.03L265.225 58.84C264.605 59.54 263.845 60.13 262.945 60.61C262.045 61.07 261.025 61.3 259.885 61.3ZM260.845 58.69C261.545 58.69 262.165 58.57 262.705 58.33C263.245 58.09 263.705 57.75 264.085 57.31C264.465 56.85 264.735 56.32 264.895 55.72V53.2C264.755 52.64 264.485 52.15 264.085 51.73C263.705 51.29 263.235 50.95 262.675 50.71C262.115 50.47 261.505 50.35 260.845 50.35C260.105 50.35 259.425 50.53 258.805 50.89C258.205 51.23 257.715 51.71 257.335 52.33C256.975 52.95 256.795 53.67 256.795 54.49C256.795 55.27 256.975 55.98 257.335 56.62C257.715 57.26 258.215 57.77 258.835 58.15C259.455 58.51 260.125 58.69 260.845 58.69ZM282.265 48.43H285.355V61H282.265V48.43ZM282.085 43.93C282.085 43.45 282.275 43.05 282.655 42.73C283.035 42.41 283.445 42.25 283.885 42.25C284.345 42.25 284.755 42.41 285.115 42.73C285.475 43.05 285.655 43.45 285.655 43.93C285.655 44.41 285.475 44.81 285.115 45.13C284.755 45.43 284.345 45.58 283.885 45.58C283.445 45.58 283.035 45.43 282.655 45.13C282.275 44.81 282.085 44.41 282.085 43.93ZM292.818 48.43L293.088 51.31L292.968 50.92C293.388 50.02 294.038 49.3 294.918 48.76C295.798 48.2 296.838 47.92 298.038 47.92C299.218 47.92 300.188 48.27 300.948 48.97C301.728 49.67 302.128 50.58 302.148 51.7V61H299.058V52.78C299.038 52.14 298.848 51.62 298.488 51.22C298.128 50.8 297.568 50.58 296.808 50.56C296.128 50.56 295.508 50.77 294.948 51.19C294.388 51.59 293.948 52.14 293.628 52.84C293.308 53.54 293.148 54.35 293.148 55.27V61H290.058V48.43H292.818ZM326.715 59.83C326.155 60.29 325.475 60.65 324.675 60.91C323.895 61.17 323.105 61.3 322.305 61.3C320.925 61.3 319.705 61.03 318.645 60.49C317.605 59.95 316.795 59.19 316.215 58.21C315.635 57.23 315.345 56.06 315.345 54.7C315.345 53.36 315.655 52.2 316.275 51.22C316.895 50.22 317.715 49.46 318.735 48.94C319.755 48.4 320.835 48.13 321.975 48.13C323.015 48.13 323.935 48.27 324.735 48.55C325.535 48.83 326.225 49.22 326.805 49.72L325.275 51.73C324.935 51.45 324.505 51.2 323.985 50.98C323.485 50.76 322.905 50.65 322.245 50.65C321.545 50.65 320.905 50.83 320.325 51.19C319.745 51.53 319.285 52.01 318.945 52.63C318.605 53.23 318.435 53.92 318.435 54.7C318.435 55.44 318.605 56.13 318.945 56.77C319.305 57.39 319.795 57.88 320.415 58.24C321.035 58.6 321.745 58.78 322.545 58.78C323.065 58.78 323.545 58.71 323.985 58.57C324.425 58.41 324.815 58.19 325.155 57.91L326.715 59.83ZM330.253 48.43H333.343V61H330.253V48.43ZM330.073 43.93C330.073 43.45 330.263 43.05 330.643 42.73C331.023 42.41 331.433 42.25 331.873 42.25C332.333 42.25 332.743 42.41 333.103 42.73C333.463 43.05 333.643 43.45 333.643 43.93C333.643 44.41 333.463 44.81 333.103 45.13C332.743 45.43 332.333 45.58 331.873 45.58C331.433 45.58 331.023 45.43 330.643 45.13C330.263 44.81 330.073 44.41 330.073 43.93ZM339.246 42.91H342.336V48.46H345.696V50.89H342.336V61H339.246V50.89H337.026V48.46H339.246V42.91ZM350.082 67.03L358.392 48.43H361.212L353.112 67.03H350.082ZM353.262 61.09L347.172 48.43H350.652L355.632 59.53L353.262 61.09ZM376.401 48.43L376.671 51.31L376.551 50.92C376.971 50.02 377.621 49.3 378.501 48.76C379.381 48.2 380.421 47.92 381.621 47.92C382.801 47.92 383.771 48.27 384.531 48.97C385.311 49.67 385.711 50.58 385.731 51.7V61H382.641V52.78C382.621 52.14 382.431 51.62 382.071 51.22C381.711 50.8 381.151 50.58 380.391 50.56C379.711 50.56 379.091 50.77 378.531 51.19C377.971 51.59 377.531 52.14 377.211 52.84C376.891 53.54 376.731 54.35 376.731 55.27V61H373.641V48.43H376.401ZM395.708 61.3C394.528 61.3 393.458 61.06 392.498 60.58C391.538 60.08 390.778 59.34 390.218 58.36C389.658 57.38 389.378 56.17 389.378 54.73C389.378 53.31 389.668 52.09 390.248 51.07C390.848 50.05 391.628 49.27 392.588 48.73C393.568 48.17 394.628 47.89 395.768 47.89C396.968 47.89 397.948 48.15 398.708 48.67C399.488 49.17 400.098 49.76 400.538 50.44L400.328 50.92L400.628 48.43H403.478V61H400.388V57.85L400.718 58.6C400.638 58.76 400.468 58.99 400.208 59.29C399.948 59.57 399.598 59.87 399.158 60.19C398.738 60.51 398.238 60.78 397.658 61C397.098 61.2 396.448 61.3 395.708 61.3ZM396.548 58.78C397.208 58.78 397.798 58.66 398.318 58.42C398.838 58.18 399.278 57.84 399.638 57.4C399.998 56.96 400.248 56.44 400.388 55.84V53.23C400.228 52.67 399.958 52.19 399.578 51.79C399.198 51.37 398.738 51.04 398.198 50.8C397.678 50.56 397.098 50.44 396.458 50.44C395.738 50.44 395.078 50.62 394.478 50.98C393.878 51.32 393.398 51.8 393.038 52.42C392.678 53.04 392.498 53.76 392.498 54.58C392.498 55.36 392.678 56.07 393.038 56.71C393.418 57.35 393.918 57.86 394.538 58.24C395.158 58.6 395.828 58.78 396.548 58.78ZM410.972 48.43L411.242 51.13L411.122 50.92C411.602 49.98 412.262 49.25 413.102 48.73C413.942 48.19 414.912 47.92 416.012 47.92C416.692 47.92 417.302 48.03 417.842 48.25C418.402 48.47 418.862 48.78 419.222 49.18C419.582 49.58 419.812 50.08 419.912 50.68L419.762 50.77C420.262 49.89 420.922 49.2 421.742 48.7C422.582 48.18 423.472 47.92 424.412 47.92C425.632 47.92 426.602 48.27 427.322 48.97C428.062 49.67 428.442 50.57 428.462 51.67V61H425.402V52.84C425.382 52.22 425.232 51.7 424.952 51.28C424.692 50.86 424.222 50.63 423.542 50.59C422.822 50.59 422.182 50.81 421.622 51.25C421.082 51.69 420.662 52.26 420.362 52.96C420.062 53.66 419.902 54.41 419.882 55.21V61H416.792V52.84C416.772 52.22 416.622 51.7 416.342 51.28C416.062 50.86 415.572 50.63 414.872 50.59C414.152 50.59 413.522 50.81 412.982 51.25C412.442 51.69 412.022 52.27 411.722 52.99C411.442 53.69 411.302 54.43 411.302 55.21V61H408.212V48.43H410.972ZM439.112 61.3C437.652 61.3 436.402 61.02 435.362 60.46C434.322 59.88 433.522 59.09 432.962 58.09C432.402 57.07 432.122 55.91 432.122 54.61C432.122 53.37 432.432 52.25 433.052 51.25C433.692 50.23 434.542 49.42 435.602 48.82C436.682 48.22 437.872 47.92 439.172 47.92C440.852 47.92 442.242 48.41 443.342 49.39C444.462 50.37 445.212 51.74 445.592 53.5L435.362 57.04L434.642 55.24L442.832 52.3L442.202 52.69C441.962 52.07 441.582 51.53 441.062 51.07C440.542 50.59 439.832 50.35 438.932 50.35C438.212 50.35 437.562 50.53 436.982 50.89C436.422 51.23 435.972 51.71 435.632 52.33C435.312 52.93 435.152 53.64 435.152 54.46C435.152 55.3 435.322 56.04 435.662 56.68C436.022 57.3 436.502 57.79 437.102 58.15C437.722 58.51 438.412 58.69 439.172 58.69C439.712 58.69 440.222 58.59 440.702 58.39C441.202 58.19 441.672 57.94 442.112 57.64L443.522 59.92C442.862 60.34 442.142 60.68 441.362 60.94C440.602 61.18 439.852 61.3 439.112 61.3Z" fill="#F8F5EC"/>
</g>
<rect x="0.5" y="0.5" width="507" height="99" rx="4.5" stroke="white" stroke-dasharray="10 5"/>
<defs>
<clipPath id="clip0_1795_4498">
<rect width="508" height="100" rx="5" fill="white"/>
</clipPath>
</defs>
</svg>
