<svg width="508" height="91" viewBox="0 0 508 91" fill="none" xmlns="http://www.w3.org/2000/svg">
<rect x="0.5" y="0.5" width="507" height="90" rx="4.5" stroke="white" stroke-dasharray="10 5"/>
<path d="M101.826 39.22H105.036V61H101.826V39.22ZM125.253 61.3C124.073 61.3 123.003 61.06 122.043 60.58C121.083 60.08 120.323 59.34 119.763 58.36C119.203 57.38 118.923 56.17 118.923 54.73C118.923 53.31 119.213 52.09 119.793 51.07C120.393 50.05 121.173 49.27 122.133 48.73C123.113 48.17 124.173 47.89 125.313 47.89C126.513 47.89 127.493 48.15 128.253 48.67C129.033 49.17 129.643 49.76 130.083 50.44L129.873 50.92L130.173 48.43H133.023V61H129.933V57.85L130.263 58.6C130.183 58.76 130.013 58.99 129.753 59.29C129.493 59.57 129.143 59.87 128.703 60.19C128.283 60.51 127.783 60.78 127.203 61C126.643 61.2 125.993 61.3 125.253 61.3ZM126.093 58.78C126.753 58.78 127.343 58.66 127.863 58.42C128.383 58.18 128.823 57.84 129.183 57.4C129.543 56.96 129.793 56.44 129.933 55.84V53.23C129.773 52.67 129.503 52.19 129.123 51.79C128.743 51.37 128.283 51.04 127.743 50.8C127.223 50.56 126.643 50.44 126.003 50.44C125.283 50.44 124.623 50.62 124.023 50.98C123.423 51.32 122.943 51.8 122.583 52.42C122.223 53.04 122.043 53.76 122.043 54.58C122.043 55.36 122.223 56.07 122.583 56.71C122.963 57.35 123.463 57.86 124.083 58.24C124.703 58.6 125.373 58.78 126.093 58.78ZM140.517 48.43L140.787 51.13L140.667 50.92C141.147 49.98 141.807 49.25 142.647 48.73C143.487 48.19 144.457 47.92 145.557 47.92C146.237 47.92 146.847 48.03 147.387 48.25C147.947 48.47 148.407 48.78 148.767 49.18C149.127 49.58 149.357 50.08 149.457 50.68L149.307 50.77C149.807 49.89 150.467 49.2 151.287 48.7C152.127 48.18 153.017 47.92 153.957 47.92C155.177 47.92 156.147 48.27 156.867 48.97C157.607 49.67 157.987 50.57 158.007 51.67V61H154.947V52.84C154.927 52.22 154.777 51.7 154.497 51.28C154.237 50.86 153.767 50.63 153.087 50.59C152.367 50.59 151.727 50.81 151.167 51.25C150.627 51.69 150.207 52.26 149.907 52.96C149.607 53.66 149.447 54.41 149.427 55.21V61H146.337V52.84C146.317 52.22 146.167 51.7 145.887 51.28C145.607 50.86 145.117 50.63 144.417 50.59C143.697 50.59 143.067 50.81 142.527 51.25C141.987 51.69 141.567 52.27 141.267 52.99C140.987 53.69 140.847 54.43 140.847 55.21V61H137.757V48.43H140.517ZM403.504 59.29C403.504 58.81 403.674 58.41 404.014 58.09C404.374 57.75 404.774 57.58 405.214 57.58C405.614 57.58 405.984 57.75 406.324 58.09C406.684 58.41 406.864 58.81 406.864 59.29C406.864 59.81 406.684 60.23 406.324 60.55C405.984 60.85 405.614 61 405.214 61C404.774 61 404.374 60.85 404.014 60.55C403.674 60.23 403.504 59.81 403.504 59.29ZM408.572 59.29C408.572 58.81 408.742 58.41 409.082 58.09C409.442 57.75 409.842 57.58 410.282 57.58C410.682 57.58 411.052 57.75 411.392 58.09C411.752 58.41 411.932 58.81 411.932 59.29C411.932 59.81 411.752 60.23 411.392 60.55C411.052 60.85 410.682 61 410.282 61C409.842 61 409.442 60.85 409.082 60.55C408.742 60.23 408.572 59.81 408.572 59.29ZM413.64 59.29C413.64 58.81 413.81 58.41 414.15 58.09C414.51 57.75 414.91 57.58 415.35 57.58C415.75 57.58 416.12 57.75 416.46 58.09C416.82 58.41 417 58.81 417 59.29C417 59.81 416.82 60.23 416.46 60.55C416.12 60.85 415.75 61 415.35 61C414.91 61 414.51 60.85 414.15 60.55C413.81 60.23 413.64 59.81 413.64 59.29ZM420.539 39.7H423.329V68.05H420.539V39.7Z" fill="#89BCD9"/>
<path d="M171.218 54.58C171.218 53.32 171.518 52.19 172.118 51.19C172.718 50.17 173.548 49.37 174.608 48.79C175.668 48.21 176.878 47.92 178.238 47.92C179.618 47.92 180.828 48.21 181.868 48.79C182.908 49.37 183.708 50.17 184.268 51.19C184.848 52.19 185.138 53.32 185.138 54.58C185.138 55.84 184.848 56.98 184.268 58C183.708 59.02 182.908 59.83 181.868 60.43C180.828 61.01 179.608 61.3 178.208 61.3C176.868 61.3 175.668 61.03 174.608 60.49C173.568 59.95 172.738 59.18 172.118 58.18C171.518 57.16 171.218 55.96 171.218 54.58ZM174.338 54.61C174.338 55.39 174.508 56.1 174.848 56.74C175.188 57.36 175.648 57.86 176.228 58.24C176.808 58.6 177.458 58.78 178.178 58.78C178.918 58.78 179.578 58.6 180.158 58.24C180.738 57.86 181.188 57.36 181.508 56.74C181.848 56.1 182.018 55.39 182.018 54.61C182.018 53.83 181.848 53.13 181.508 52.51C181.188 51.89 180.738 51.39 180.158 51.01C179.578 50.63 178.918 50.44 178.178 50.44C177.438 50.44 176.778 50.63 176.198 51.01C175.618 51.39 175.158 51.9 174.818 52.54C174.498 53.16 174.338 53.85 174.338 54.61ZM196.322 61.3C195.402 61.3 194.522 61.1 193.682 60.7C192.842 60.28 192.172 59.72 191.672 59.02L191.852 58.09V67.03H188.792V48.22H191.462L191.882 51.28L191.552 50.41C192.172 49.69 192.932 49.09 193.832 48.61C194.752 48.13 195.772 47.89 196.892 47.89C198.072 47.89 199.132 48.17 200.072 48.73C201.012 49.29 201.752 50.08 202.292 51.1C202.832 52.12 203.102 53.32 203.102 54.7C203.102 56.06 202.802 57.24 202.202 58.24C201.622 59.22 200.822 59.98 199.802 60.52C198.782 61.04 197.622 61.3 196.322 61.3ZM195.722 58.87C196.482 58.87 197.182 58.69 197.822 58.33C198.482 57.97 199.002 57.48 199.382 56.86C199.782 56.22 199.982 55.51 199.982 54.73C199.982 53.91 199.792 53.19 199.412 52.57C199.052 51.93 198.562 51.43 197.942 51.07C197.342 50.71 196.672 50.53 195.932 50.53C195.232 50.53 194.612 50.66 194.072 50.92C193.532 51.16 193.072 51.5 192.692 51.94C192.312 52.38 192.042 52.91 191.882 53.53V55.84C192.002 56.42 192.242 56.94 192.602 57.4C192.962 57.86 193.412 58.22 193.952 58.48C194.492 58.74 195.082 58.87 195.722 58.87ZM212.661 61.3C211.201 61.3 209.951 61.02 208.911 60.46C207.871 59.88 207.071 59.09 206.511 58.09C205.951 57.07 205.671 55.91 205.671 54.61C205.671 53.37 205.981 52.25 206.601 51.25C207.241 50.23 208.091 49.42 209.151 48.82C210.231 48.22 211.421 47.92 212.721 47.92C214.401 47.92 215.791 48.41 216.891 49.39C218.011 50.37 218.761 51.74 219.141 53.5L208.911 57.04L208.191 55.24L216.381 52.3L215.751 52.69C215.511 52.07 215.131 51.53 214.611 51.07C214.091 50.59 213.381 50.35 212.481 50.35C211.761 50.35 211.111 50.53 210.531 50.89C209.971 51.23 209.521 51.71 209.181 52.33C208.861 52.93 208.701 53.64 208.701 54.46C208.701 55.3 208.871 56.04 209.211 56.68C209.571 57.3 210.051 57.79 210.651 58.15C211.271 58.51 211.961 58.69 212.721 58.69C213.261 58.69 213.771 58.59 214.251 58.39C214.751 58.19 215.221 57.94 215.661 57.64L217.071 59.92C216.411 60.34 215.691 60.68 214.911 60.94C214.151 61.18 213.401 61.3 212.661 61.3ZM225.331 48.43L225.601 51.31L225.481 50.92C225.901 50.02 226.551 49.3 227.431 48.76C228.311 48.2 229.351 47.92 230.551 47.92C231.731 47.92 232.701 48.27 233.461 48.97C234.241 49.67 234.641 50.58 234.661 51.7V61H231.571V52.78C231.551 52.14 231.361 51.62 231.001 51.22C230.641 50.8 230.081 50.58 229.321 50.56C228.641 50.56 228.021 50.77 227.461 51.19C226.901 51.59 226.461 52.14 226.141 52.84C225.821 53.54 225.661 54.35 225.661 55.27V61H222.571V48.43H225.331ZM250.138 42.91H253.228V48.46H256.588V50.89H253.228V61H250.138V50.89H247.918V48.46H250.138V42.91ZM258.845 54.58C258.845 53.32 259.145 52.19 259.745 51.19C260.345 50.17 261.175 49.37 262.235 48.79C263.295 48.21 264.505 47.92 265.865 47.92C267.245 47.92 268.455 48.21 269.495 48.79C270.535 49.37 271.335 50.17 271.895 51.19C272.475 52.19 272.765 53.32 272.765 54.58C272.765 55.84 272.475 56.98 271.895 58C271.335 59.02 270.535 59.83 269.495 60.43C268.455 61.01 267.235 61.3 265.835 61.3C264.495 61.3 263.295 61.03 262.235 60.49C261.195 59.95 260.365 59.18 259.745 58.18C259.145 57.16 258.845 55.96 258.845 54.58ZM261.965 54.61C261.965 55.39 262.135 56.1 262.475 56.74C262.815 57.36 263.275 57.86 263.855 58.24C264.435 58.6 265.085 58.78 265.805 58.78C266.545 58.78 267.205 58.6 267.785 58.24C268.365 57.86 268.815 57.36 269.135 56.74C269.475 56.1 269.645 55.39 269.645 54.61C269.645 53.83 269.475 53.13 269.135 52.51C268.815 51.89 268.365 51.39 267.785 51.01C267.205 50.63 266.545 50.44 265.805 50.44C265.065 50.44 264.405 50.63 263.825 51.01C263.245 51.39 262.785 51.9 262.445 52.54C262.125 53.16 261.965 53.85 261.965 54.61ZM288.73 48.43L289.03 52.03L288.88 51.55C289.22 50.79 289.7 50.14 290.32 49.6C290.94 49.06 291.58 48.65 292.24 48.37C292.92 48.07 293.49 47.92 293.95 47.92L293.8 50.98C292.84 50.92 292 51.1 291.28 51.52C290.58 51.94 290.03 52.5 289.63 53.2C289.23 53.9 289.03 54.65 289.03 55.45V61H285.97V48.43H288.73ZM302.837 61.3C301.377 61.3 300.127 61.02 299.087 60.46C298.047 59.88 297.247 59.09 296.687 58.09C296.127 57.07 295.847 55.91 295.847 54.61C295.847 53.37 296.157 52.25 296.777 51.25C297.417 50.23 298.267 49.42 299.327 48.82C300.407 48.22 301.597 47.92 302.897 47.92C304.577 47.92 305.967 48.41 307.067 49.39C308.187 50.37 308.937 51.74 309.317 53.5L299.087 57.04L298.367 55.24L306.557 52.3L305.927 52.69C305.687 52.07 305.307 51.53 304.787 51.07C304.267 50.59 303.557 50.35 302.657 50.35C301.937 50.35 301.287 50.53 300.707 50.89C300.147 51.23 299.697 51.71 299.357 52.33C299.037 52.93 298.877 53.64 298.877 54.46C298.877 55.3 299.047 56.04 299.387 56.68C299.747 57.3 300.227 57.79 300.827 58.15C301.447 58.51 302.137 58.69 302.897 58.69C303.437 58.69 303.947 58.59 304.427 58.39C304.927 58.19 305.397 57.94 305.837 57.64L307.247 59.92C306.587 60.34 305.867 60.68 305.087 60.94C304.327 61.18 303.577 61.3 302.837 61.3ZM312.747 37.69H315.837V61H312.747V37.69ZM319.46 54.58C319.46 53.32 319.76 52.19 320.36 51.19C320.96 50.17 321.79 49.37 322.85 48.79C323.91 48.21 325.12 47.92 326.48 47.92C327.86 47.92 329.07 48.21 330.11 48.79C331.15 49.37 331.95 50.17 332.51 51.19C333.09 52.19 333.38 53.32 333.38 54.58C333.38 55.84 333.09 56.98 332.51 58C331.95 59.02 331.15 59.83 330.11 60.43C329.07 61.01 327.85 61.3 326.45 61.3C325.11 61.3 323.91 61.03 322.85 60.49C321.81 59.95 320.98 59.18 320.36 58.18C319.76 57.16 319.46 55.96 319.46 54.58ZM322.58 54.61C322.58 55.39 322.75 56.1 323.09 56.74C323.43 57.36 323.89 57.86 324.47 58.24C325.05 58.6 325.7 58.78 326.42 58.78C327.16 58.78 327.82 58.6 328.4 58.24C328.98 57.86 329.43 57.36 329.75 56.74C330.09 56.1 330.26 55.39 330.26 54.61C330.26 53.83 330.09 53.13 329.75 52.51C329.43 51.89 328.98 51.39 328.4 51.01C327.82 50.63 327.16 50.44 326.42 50.44C325.68 50.44 325.02 50.63 324.44 51.01C323.86 51.39 323.4 51.9 323.06 52.54C322.74 53.16 322.58 53.85 322.58 54.61ZM347.324 59.83C346.764 60.29 346.084 60.65 345.284 60.91C344.504 61.17 343.714 61.3 342.914 61.3C341.534 61.3 340.314 61.03 339.254 60.49C338.214 59.95 337.404 59.19 336.824 58.21C336.244 57.23 335.954 56.06 335.954 54.7C335.954 53.36 336.264 52.2 336.884 51.22C337.504 50.22 338.324 49.46 339.344 48.94C340.364 48.4 341.444 48.13 342.584 48.13C343.624 48.13 344.544 48.27 345.344 48.55C346.144 48.83 346.834 49.22 347.414 49.72L345.884 51.73C345.544 51.45 345.114 51.2 344.594 50.98C344.094 50.76 343.514 50.65 342.854 50.65C342.154 50.65 341.514 50.83 340.934 51.19C340.354 51.53 339.894 52.01 339.554 52.63C339.214 53.23 339.044 53.92 339.044 54.7C339.044 55.44 339.214 56.13 339.554 56.77C339.914 57.39 340.404 57.88 341.024 58.24C341.644 58.6 342.354 58.78 343.154 58.78C343.674 58.78 344.154 58.71 344.594 58.57C345.034 58.41 345.424 58.19 345.764 57.91L347.324 59.83ZM356.112 61.3C354.932 61.3 353.862 61.06 352.902 60.58C351.942 60.08 351.182 59.34 350.622 58.36C350.062 57.38 349.782 56.17 349.782 54.73C349.782 53.31 350.072 52.09 350.652 51.07C351.252 50.05 352.032 49.27 352.992 48.73C353.972 48.17 355.032 47.89 356.172 47.89C357.372 47.89 358.352 48.15 359.112 48.67C359.892 49.17 360.502 49.76 360.942 50.44L360.732 50.92L361.032 48.43H363.882V61H360.792V57.85L361.122 58.6C361.042 58.76 360.872 58.99 360.612 59.29C360.352 59.57 360.002 59.87 359.562 60.19C359.142 60.51 358.642 60.78 358.062 61C357.502 61.2 356.852 61.3 356.112 61.3ZM356.952 58.78C357.612 58.78 358.202 58.66 358.722 58.42C359.242 58.18 359.682 57.84 360.042 57.4C360.402 56.96 360.652 56.44 360.792 55.84V53.23C360.632 52.67 360.362 52.19 359.982 51.79C359.602 51.37 359.142 51.04 358.602 50.8C358.082 50.56 357.502 50.44 356.862 50.44C356.142 50.44 355.482 50.62 354.882 50.98C354.282 51.32 353.802 51.8 353.442 52.42C353.082 53.04 352.902 53.76 352.902 54.58C352.902 55.36 353.082 56.07 353.442 56.71C353.822 57.35 354.322 57.86 354.942 58.24C355.562 58.6 356.232 58.78 356.952 58.78ZM369.816 42.91H372.906V48.46H376.266V50.89H372.906V61H369.816V50.89H367.596V48.46H369.816V42.91ZM385.512 61.3C384.052 61.3 382.802 61.02 381.762 60.46C380.722 59.88 379.922 59.09 379.362 58.09C378.802 57.07 378.522 55.91 378.522 54.61C378.522 53.37 378.832 52.25 379.452 51.25C380.092 50.23 380.942 49.42 382.002 48.82C383.082 48.22 384.272 47.92 385.572 47.92C387.252 47.92 388.642 48.41 389.742 49.39C390.862 50.37 391.612 51.74 391.992 53.5L381.762 57.04L381.042 55.24L389.232 52.3L388.602 52.69C388.362 52.07 387.982 51.53 387.462 51.07C386.942 50.59 386.232 50.35 385.332 50.35C384.612 50.35 383.962 50.53 383.382 50.89C382.822 51.23 382.372 51.71 382.032 52.33C381.712 52.93 381.552 53.64 381.552 54.46C381.552 55.3 381.722 56.04 382.062 56.68C382.422 57.3 382.902 57.79 383.502 58.15C384.122 58.51 384.812 58.69 385.572 58.69C386.112 58.69 386.622 58.59 387.102 58.39C387.602 58.19 388.072 57.94 388.512 57.64L389.922 59.92C389.262 60.34 388.542 60.68 387.762 60.94C387.002 61.18 386.252 61.3 385.512 61.3Z" fill="#F8F5EC"/>
<path d="M81.2088 54.3454C83.5426 67.4847 70.0592 76.9933 54.0284 73.8708C37.9976 70.7482 20.4361 57.4938 22.6742 42.9438C24.7242 29.6163 37.9823 22.1148 47.9789 24.062C64.0097 27.1846 78.2872 37.8967 81.2088 54.3454Z" fill="#89BCD9" fill-opacity="0.12"/>
<ellipse cx="3.67528" cy="3.50464" rx="3.67528" ry="3.50464" transform="matrix(0.990909 0.134535 -0.169599 0.985513 36.7266 64.2891)" fill="#89BCD9"/>
<ellipse cx="3.67528" cy="3.50464" rx="3.67528" ry="3.50464" transform="matrix(0.990909 0.134535 -0.169599 0.985513 55 64.2891)" fill="#89BCD9"/>
<rect x="41.4375" y="21.1875" width="15.1513" height="14.4837" rx="1" stroke="#89BCD9" stroke-width="2"/>
<rect x="33.0859" y="30.6758" width="31.8524" height="35.9644" rx="2" fill="#F8F5EC"/>
</svg>
