<svg width="508" height="107" viewBox="0 0 508 107" fill="none" xmlns="http://www.w3.org/2000/svg">
<rect x="0.5" y="0.5" width="507" height="106" rx="4.5" stroke="white" stroke-dasharray="10 5"/>
<path d="M101.146 53.22H104.356V75H101.146V53.22ZM124.573 75.3C123.393 75.3 122.323 75.06 121.363 74.58C120.403 74.08 119.643 73.34 119.083 72.36C118.523 71.38 118.243 70.17 118.243 68.73C118.243 67.31 118.533 66.09 119.113 65.07C119.713 64.05 120.493 63.27 121.453 62.73C122.433 62.17 123.493 61.89 124.633 61.89C125.833 61.89 126.813 62.15 127.573 62.67C128.353 63.17 128.963 63.76 129.403 64.44L129.193 64.92L129.493 62.43H132.343V75H129.253V71.85L129.583 72.6C129.503 72.76 129.333 72.99 129.073 73.29C128.813 73.57 128.463 73.87 128.023 74.19C127.603 74.51 127.103 74.78 126.523 75C125.963 75.2 125.313 75.3 124.573 75.3ZM125.413 72.78C126.073 72.78 126.663 72.66 127.183 72.42C127.703 72.18 128.143 71.84 128.503 71.4C128.863 70.96 129.113 70.44 129.253 69.84V67.23C129.093 66.67 128.823 66.19 128.443 65.79C128.063 65.37 127.603 65.04 127.063 64.8C126.543 64.56 125.963 64.44 125.323 64.44C124.603 64.44 123.943 64.62 123.343 64.98C122.743 65.32 122.263 65.8 121.903 66.42C121.543 67.04 121.363 67.76 121.363 68.58C121.363 69.36 121.543 70.07 121.903 70.71C122.283 71.35 122.783 71.86 123.403 72.24C124.023 72.6 124.693 72.78 125.413 72.78ZM139.837 62.43L140.107 65.13L139.987 64.92C140.467 63.98 141.127 63.25 141.967 62.73C142.807 62.19 143.777 61.92 144.877 61.92C145.557 61.92 146.167 62.03 146.707 62.25C147.267 62.47 147.727 62.78 148.087 63.18C148.447 63.58 148.677 64.08 148.777 64.68L148.627 64.77C149.127 63.89 149.787 63.2 150.607 62.7C151.447 62.18 152.337 61.92 153.277 61.92C154.497 61.92 155.467 62.27 156.187 62.97C156.927 63.67 157.307 64.57 157.327 65.67V75H154.267V66.84C154.247 66.22 154.097 65.7 153.817 65.28C153.557 64.86 153.087 64.63 152.407 64.59C151.687 64.59 151.047 64.81 150.487 65.25C149.947 65.69 149.527 66.26 149.227 66.96C148.927 67.66 148.767 68.41 148.747 69.21V75H145.657V66.84C145.637 66.22 145.487 65.7 145.207 65.28C144.927 64.86 144.437 64.63 143.737 64.59C143.017 64.59 142.387 64.81 141.847 65.25C141.307 65.69 140.887 66.27 140.587 66.99C140.307 67.69 140.167 68.43 140.167 69.21V75H137.077V62.43H139.837ZM461.154 73.29C461.154 72.81 461.324 72.41 461.664 72.09C462.024 71.75 462.424 71.58 462.864 71.58C463.264 71.58 463.634 71.75 463.974 72.09C464.334 72.41 464.514 72.81 464.514 73.29C464.514 73.81 464.334 74.23 463.974 74.55C463.634 74.85 463.264 75 462.864 75C462.424 75 462.024 74.85 461.664 74.55C461.324 74.23 461.154 73.81 461.154 73.29ZM466.222 73.29C466.222 72.81 466.392 72.41 466.732 72.09C467.092 71.75 467.492 71.58 467.932 71.58C468.332 71.58 468.702 71.75 469.042 72.09C469.402 72.41 469.582 72.81 469.582 73.29C469.582 73.81 469.402 74.23 469.042 74.55C468.702 74.85 468.332 75 467.932 75C467.492 75 467.092 74.85 466.732 74.55C466.392 74.23 466.222 73.81 466.222 73.29ZM471.291 73.29C471.291 72.81 471.461 72.41 471.801 72.09C472.161 71.75 472.561 71.58 473.001 71.58C473.401 71.58 473.771 71.75 474.111 72.09C474.471 72.41 474.651 72.81 474.651 73.29C474.651 73.81 474.471 74.23 474.111 74.55C473.771 74.85 473.401 75 473.001 75C472.561 75 472.161 74.85 471.801 74.55C471.461 74.23 471.291 73.81 471.291 73.29ZM478.189 53.7H480.979V82.05H478.189V53.7Z" fill="#89BCD9"/>
<path d="M170.538 68.58C170.538 67.32 170.838 66.19 171.438 65.19C172.038 64.17 172.868 63.37 173.928 62.79C174.988 62.21 176.198 61.92 177.558 61.92C178.938 61.92 180.148 62.21 181.188 62.79C182.228 63.37 183.028 64.17 183.588 65.19C184.168 66.19 184.458 67.32 184.458 68.58C184.458 69.84 184.168 70.98 183.588 72C183.028 73.02 182.228 73.83 181.188 74.43C180.148 75.01 178.928 75.3 177.528 75.3C176.188 75.3 174.988 75.03 173.928 74.49C172.888 73.95 172.058 73.18 171.438 72.18C170.838 71.16 170.538 69.96 170.538 68.58ZM173.658 68.61C173.658 69.39 173.828 70.1 174.168 70.74C174.508 71.36 174.968 71.86 175.548 72.24C176.128 72.6 176.778 72.78 177.498 72.78C178.238 72.78 178.898 72.6 179.478 72.24C180.058 71.86 180.508 71.36 180.828 70.74C181.168 70.1 181.338 69.39 181.338 68.61C181.338 67.83 181.168 67.13 180.828 66.51C180.508 65.89 180.058 65.39 179.478 65.01C178.898 64.63 178.238 64.44 177.498 64.44C176.758 64.44 176.098 64.63 175.518 65.01C174.938 65.39 174.478 65.9 174.138 66.54C173.818 67.16 173.658 67.85 173.658 68.61ZM195.642 75.3C194.722 75.3 193.842 75.1 193.002 74.7C192.162 74.28 191.492 73.72 190.992 73.02L191.172 72.09V81.03H188.112V62.22H190.782L191.202 65.28L190.872 64.41C191.492 63.69 192.252 63.09 193.152 62.61C194.072 62.13 195.092 61.89 196.212 61.89C197.392 61.89 198.452 62.17 199.392 62.73C200.332 63.29 201.072 64.08 201.612 65.1C202.152 66.12 202.422 67.32 202.422 68.7C202.422 70.06 202.122 71.24 201.522 72.24C200.942 73.22 200.142 73.98 199.122 74.52C198.102 75.04 196.942 75.3 195.642 75.3ZM195.042 72.87C195.802 72.87 196.502 72.69 197.142 72.33C197.802 71.97 198.322 71.48 198.702 70.86C199.102 70.22 199.302 69.51 199.302 68.73C199.302 67.91 199.112 67.19 198.732 66.57C198.372 65.93 197.882 65.43 197.262 65.07C196.662 64.71 195.992 64.53 195.252 64.53C194.552 64.53 193.932 64.66 193.392 64.92C192.852 65.16 192.392 65.5 192.012 65.94C191.632 66.38 191.362 66.91 191.202 67.53V69.84C191.322 70.42 191.562 70.94 191.922 71.4C192.282 71.86 192.732 72.22 193.272 72.48C193.812 72.74 194.402 72.87 195.042 72.87ZM211.981 75.3C210.521 75.3 209.271 75.02 208.231 74.46C207.191 73.88 206.391 73.09 205.831 72.09C205.271 71.07 204.991 69.91 204.991 68.61C204.991 67.37 205.301 66.25 205.921 65.25C206.561 64.23 207.411 63.42 208.471 62.82C209.551 62.22 210.741 61.92 212.041 61.92C213.721 61.92 215.111 62.41 216.211 63.39C217.331 64.37 218.081 65.74 218.461 67.5L208.231 71.04L207.511 69.24L215.701 66.3L215.071 66.69C214.831 66.07 214.451 65.53 213.931 65.07C213.411 64.59 212.701 64.35 211.801 64.35C211.081 64.35 210.431 64.53 209.851 64.89C209.291 65.23 208.841 65.71 208.501 66.33C208.181 66.93 208.021 67.64 208.021 68.46C208.021 69.3 208.191 70.04 208.531 70.68C208.891 71.3 209.371 71.79 209.971 72.15C210.591 72.51 211.281 72.69 212.041 72.69C212.581 72.69 213.091 72.59 213.571 72.39C214.071 72.19 214.541 71.94 214.981 71.64L216.391 73.92C215.731 74.34 215.011 74.68 214.231 74.94C213.471 75.18 212.721 75.3 211.981 75.3ZM224.651 62.43L224.921 65.31L224.801 64.92C225.221 64.02 225.871 63.3 226.751 62.76C227.631 62.2 228.671 61.92 229.871 61.92C231.051 61.92 232.021 62.27 232.781 62.97C233.561 63.67 233.961 64.58 233.981 65.7V75H230.891V66.78C230.871 66.14 230.681 65.62 230.321 65.22C229.961 64.8 229.401 64.58 228.641 64.56C227.961 64.56 227.341 64.77 226.781 65.19C226.221 65.59 225.781 66.14 225.461 66.84C225.141 67.54 224.981 68.35 224.981 69.27V75H221.891V62.43H224.651ZM249.459 56.91H252.549V62.46H255.909V64.89H252.549V75H249.459V64.89H247.239V62.46H249.459V56.91ZM258.165 68.58C258.165 67.32 258.465 66.19 259.065 65.19C259.665 64.17 260.495 63.37 261.555 62.79C262.615 62.21 263.825 61.92 265.185 61.92C266.565 61.92 267.775 62.21 268.815 62.79C269.855 63.37 270.655 64.17 271.215 65.19C271.795 66.19 272.085 67.32 272.085 68.58C272.085 69.84 271.795 70.98 271.215 72C270.655 73.02 269.855 73.83 268.815 74.43C267.775 75.01 266.555 75.3 265.155 75.3C263.815 75.3 262.615 75.03 261.555 74.49C260.515 73.95 259.685 73.18 259.065 72.18C258.465 71.16 258.165 69.96 258.165 68.58ZM261.285 68.61C261.285 69.39 261.455 70.1 261.795 70.74C262.135 71.36 262.595 71.86 263.175 72.24C263.755 72.6 264.405 72.78 265.125 72.78C265.865 72.78 266.525 72.6 267.105 72.24C267.685 71.86 268.135 71.36 268.455 70.74C268.795 70.1 268.965 69.39 268.965 68.61C268.965 67.83 268.795 67.13 268.455 66.51C268.135 65.89 267.685 65.39 267.105 65.01C266.525 64.63 265.865 64.44 265.125 64.44C264.385 64.44 263.725 64.63 263.145 65.01C262.565 65.39 262.105 65.9 261.765 66.54C261.445 67.16 261.285 67.85 261.285 68.61ZM293.54 62.43L297.05 70.5L296.45 70.53L299.66 62.43H302.69L296.93 75.75L292.91 67.2L289.22 75.75L283.43 62.43H286.46L290.18 70.89L289.1 70.71L291.8 64.47L290.87 62.43H293.54ZM304.161 68.58C304.161 67.32 304.461 66.19 305.061 65.19C305.661 64.17 306.491 63.37 307.551 62.79C308.611 62.21 309.821 61.92 311.181 61.92C312.561 61.92 313.771 62.21 314.811 62.79C315.851 63.37 316.651 64.17 317.211 65.19C317.791 66.19 318.081 67.32 318.081 68.58C318.081 69.84 317.791 70.98 317.211 72C316.651 73.02 315.851 73.83 314.811 74.43C313.771 75.01 312.551 75.3 311.151 75.3C309.811 75.3 308.611 75.03 307.551 74.49C306.511 73.95 305.681 73.18 305.061 72.18C304.461 71.16 304.161 69.96 304.161 68.58ZM307.281 68.61C307.281 69.39 307.451 70.1 307.791 70.74C308.131 71.36 308.591 71.86 309.171 72.24C309.751 72.6 310.401 72.78 311.121 72.78C311.861 72.78 312.521 72.6 313.101 72.24C313.681 71.86 314.131 71.36 314.451 70.74C314.791 70.1 314.961 69.39 314.961 68.61C314.961 67.83 314.791 67.13 314.451 66.51C314.131 65.89 313.681 65.39 313.101 65.01C312.521 64.63 311.861 64.44 311.121 64.44C310.381 64.44 309.721 64.63 309.141 65.01C308.561 65.39 308.101 65.9 307.761 66.54C307.441 67.16 307.281 67.85 307.281 68.61ZM324.495 62.43L324.795 66.03L324.645 65.55C324.985 64.79 325.465 64.14 326.085 63.6C326.705 63.06 327.345 62.65 328.005 62.37C328.685 62.07 329.255 61.92 329.715 61.92L329.565 64.98C328.605 64.92 327.765 65.1 327.045 65.52C326.345 65.94 325.795 66.5 325.395 67.2C324.995 67.9 324.795 68.65 324.795 69.45V75H321.735V62.43H324.495ZM333.22 75V51.69H336.31V75H333.22ZM339.37 66.6L345.13 75H341.53L337.33 68.37L339.37 66.6ZM335.35 71.13L335.05 68.16L342.67 62.16L344.56 63.81L335.35 71.13ZM360.765 62.43L361.065 66.03L360.915 65.55C361.255 64.79 361.735 64.14 362.355 63.6C362.975 63.06 363.615 62.65 364.275 62.37C364.955 62.07 365.525 61.92 365.985 61.92L365.835 64.98C364.875 64.92 364.035 65.1 363.315 65.52C362.615 65.94 362.065 66.5 361.665 67.2C361.265 67.9 361.065 68.65 361.065 69.45V75H358.005V62.43H360.765ZM374.872 75.3C373.412 75.3 372.162 75.02 371.122 74.46C370.082 73.88 369.282 73.09 368.722 72.09C368.162 71.07 367.882 69.91 367.882 68.61C367.882 67.37 368.192 66.25 368.812 65.25C369.452 64.23 370.302 63.42 371.362 62.82C372.442 62.22 373.632 61.92 374.932 61.92C376.612 61.92 378.002 62.41 379.102 63.39C380.222 64.37 380.972 65.74 381.352 67.5L371.122 71.04L370.402 69.24L378.592 66.3L377.962 66.69C377.722 66.07 377.342 65.53 376.822 65.07C376.302 64.59 375.592 64.35 374.692 64.35C373.972 64.35 373.322 64.53 372.742 64.89C372.182 65.23 371.732 65.71 371.392 66.33C371.072 66.93 370.912 67.64 370.912 68.46C370.912 69.3 371.082 70.04 371.422 70.68C371.782 71.3 372.262 71.79 372.862 72.15C373.482 72.51 374.172 72.69 374.932 72.69C375.472 72.69 375.982 72.59 376.462 72.39C376.962 72.19 377.432 71.94 377.872 71.64L379.282 73.92C378.622 74.34 377.902 74.68 377.122 74.94C376.362 75.18 375.612 75.3 374.872 75.3ZM387.542 62.43L387.812 65.13L387.692 64.92C388.172 63.98 388.832 63.25 389.672 62.73C390.512 62.19 391.482 61.92 392.582 61.92C393.262 61.92 393.872 62.03 394.412 62.25C394.972 62.47 395.432 62.78 395.792 63.18C396.152 63.58 396.382 64.08 396.482 64.68L396.332 64.77C396.832 63.89 397.492 63.2 398.312 62.7C399.152 62.18 400.042 61.92 400.982 61.92C402.202 61.92 403.172 62.27 403.892 62.97C404.632 63.67 405.012 64.57 405.032 65.67V75H401.972V66.84C401.952 66.22 401.802 65.7 401.522 65.28C401.262 64.86 400.792 64.63 400.112 64.59C399.392 64.59 398.752 64.81 398.192 65.25C397.652 65.69 397.232 66.26 396.932 66.96C396.632 67.66 396.472 68.41 396.452 69.21V75H393.362V66.84C393.342 66.22 393.192 65.7 392.912 65.28C392.632 64.86 392.142 64.63 391.442 64.59C390.722 64.59 390.092 64.81 389.552 65.25C389.012 65.69 388.592 66.27 388.292 66.99C388.012 67.69 387.872 68.43 387.872 69.21V75H384.782V62.43H387.542ZM408.692 68.58C408.692 67.32 408.992 66.19 409.592 65.19C410.192 64.17 411.022 63.37 412.082 62.79C413.142 62.21 414.352 61.92 415.712 61.92C417.092 61.92 418.302 62.21 419.342 62.79C420.382 63.37 421.182 64.17 421.742 65.19C422.322 66.19 422.612 67.32 422.612 68.58C422.612 69.84 422.322 70.98 421.742 72C421.182 73.02 420.382 73.83 419.342 74.43C418.302 75.01 417.082 75.3 415.682 75.3C414.342 75.3 413.142 75.03 412.082 74.49C411.042 73.95 410.212 73.18 409.592 72.18C408.992 71.16 408.692 69.96 408.692 68.58ZM411.812 68.61C411.812 69.39 411.982 70.1 412.322 70.74C412.662 71.36 413.122 71.86 413.702 72.24C414.282 72.6 414.932 72.78 415.652 72.78C416.392 72.78 417.052 72.6 417.632 72.24C418.212 71.86 418.662 71.36 418.982 70.74C419.322 70.1 419.492 69.39 419.492 68.61C419.492 67.83 419.322 67.13 418.982 66.51C418.662 65.89 418.212 65.39 417.632 65.01C417.052 64.63 416.392 64.44 415.652 64.44C414.912 64.44 414.252 64.63 413.672 65.01C413.092 65.39 412.632 65.9 412.292 66.54C411.972 67.16 411.812 67.85 411.812 68.61ZM427.466 56.91H430.556V62.46H433.916V64.89H430.556V75H427.466V64.89H425.246V62.46H427.466V56.91ZM443.163 75.3C441.703 75.3 440.453 75.02 439.413 74.46C438.373 73.88 437.573 73.09 437.013 72.09C436.453 71.07 436.173 69.91 436.173 68.61C436.173 67.37 436.483 66.25 437.103 65.25C437.743 64.23 438.593 63.42 439.653 62.82C440.733 62.22 441.923 61.92 443.223 61.92C444.903 61.92 446.293 62.41 447.393 63.39C448.513 64.37 449.263 65.74 449.643 67.5L439.413 71.04L438.693 69.24L446.883 66.3L446.253 66.69C446.013 66.07 445.633 65.53 445.113 65.07C444.593 64.59 443.883 64.35 442.983 64.35C442.263 64.35 441.613 64.53 441.033 64.89C440.473 65.23 440.023 65.71 439.683 66.33C439.363 66.93 439.203 67.64 439.203 68.46C439.203 69.3 439.373 70.04 439.713 70.68C440.073 71.3 440.553 71.79 441.153 72.15C441.773 72.51 442.463 72.69 443.223 72.69C443.763 72.69 444.273 72.59 444.753 72.39C445.253 72.19 445.723 71.94 446.163 71.64L447.573 73.92C446.913 74.34 446.193 74.68 445.413 74.94C444.653 75.18 443.903 75.3 443.163 75.3Z" fill="#F8F5EC"/>
<path d="M82.8612 53.4884C89.0495 65.3529 79.7516 78.686 64.2288 80.7086C48.706 82.7311 28.6554 75.5207 26.1815 60.8736C23.9155 47.4571 33.6304 36.1185 43.3103 34.8572C58.8331 32.8346 75.1143 38.6357 82.8612 53.4884Z" fill="#89BCD9" fill-opacity="0.12"/>
<path d="M44.9688 52.0312H71.4424C72.1327 52.0312 72.6924 52.5909 72.6924 53.2812V70.3193H43.7188V53.2812C43.7188 52.5909 44.2784 52.0312 44.9688 52.0312Z" fill="#89BCD9" stroke="#F8F5EC" stroke-width="1.5"/>
<path d="M39.5938 72.6367H76.6846V74.1326C76.6846 75.7894 75.3414 77.1326 73.6846 77.1326H42.5938C40.9369 77.1326 39.5938 75.7894 39.5938 74.1326V72.6367Z" fill="#F8F5EC"/>
<rect x="55.3281" y="73.7617" width="6.74379" height="1.12396" rx="0.561982" fill="#140754"/>
<path d="M46.0907 32.6575C33.2941 31.3937 24.5907 39.6574 24.5906 52.1574" stroke="#89BCD9" stroke-width="2" stroke-linecap="round"/>
<path d="M45.5914 43.6607C39.0914 42.6607 36.5915 46.1607 35.8171 52.1753" stroke="#89BCD9" stroke-width="2" stroke-linecap="round"/>
<path d="M46.0977 38.159C36.0344 37.1932 30.3397 43.162 29.9362 52.0389" stroke="#89BCD9" stroke-width="2" stroke-linecap="round"/>
</svg>
